<?xml version="1.0"?>
<svg xmlns="http://www.w3.org/2000/svg" viewBox="0 0 64 64" width="28" height="28"><g id="Repair"><rect x="31" y="47" width="2" height="2"/><path d="M59,14H45.51l1.6-1.067a1,1,0,0,0,.364-.438L49.6,7.545a1,1,0,0,0-.212-1.1L46.556,3.615a1,1,0,0,0-1.1-.212l-4.95,2.122a1,1,0,0,0-.438.364l-2.791,4.187L33.71,14H30.657l-.034-.034A9.949,9.949,0,0,0,28.05,4.322,9.066,9.066,0,0,0,19.3,1.943a1,1,0,0,0-.538,1.565l3.722,4.963-3.016,3.016L14.508,7.765a1,1,0,0,0-1.565.538,8.936,8.936,0,0,0,.364,5.7H5a3,3,0,0,0-3,3V49a3,3,0,0,0,3,3H24.82l-.667,4H23a1,1,0,0,0-.8.4l-3,4A1,1,0,0,0,20,62H44a1,1,0,0,0,.8-1.6l-3-4A1,1,0,0,0,41,56H39.847l-.667-4H59a3,3,0,0,0,3-3V17A3,3,0,0,0,59,14ZM33.672,17.016l4.435-4.88,2.757,2.757-4.88,4.435Zm7.894-9.77,4.055-1.738,1.871,1.871-1.738,4.055-3.313,2.208-3.083-3.083Zm-22.6,6.361a1,1,0,0,0,1.307-.092l4.243-4.243a1,1,0,0,0,.092-1.307L21.365,3.641a7.14,7.14,0,0,1,5.271,2.095,7.848,7.848,0,0,1,1.907,8.1,1,1,0,0,0,.214,1.1L40.071,26.243a1,1,0,0,0,1.1.214,7.847,7.847,0,0,1,8.1,1.907,7.12,7.12,0,0,1,2.095,5.271l-4.324-3.242a1,1,0,0,0-1.307.092l-4.243,4.243a1,1,0,0,0-.092,1.307l3.242,4.324a7.109,7.109,0,0,1-5.271-2.095c-2.226-2.226-3.075-5.757-1.934-8.038a1,1,0,0,0-.187-1.155L25.929,17.757a1,1,0,0,0-1.155-.187c-2.281,1.142-5.812.292-8.038-1.934a7.12,7.12,0,0,1-2.1-5.271Zm8.714,17.557-1.7.341a1,1,0,0,0-.8.98v1l-6.023,6.076A3.992,3.992,0,0,1,16.3,40.748h0a4.021,4.021,0,0,1-2.842-6.863l6.057-6.056h1a1,1,0,0,0,.98-.8l.341-1.7ZM25.43,26.087l2.854-3.146,1.775,1.775L26.913,27.57ZM5,16h9.431a9.215,9.215,0,0,0,.891,1.05c2.641,2.64,6.664,3.687,9.67,2.6l1.876,1.877-2.854,3.146-2.085-2.085a1,1,0,0,0-1.688.511L19.7,25.829H19.1a1,1,0,0,0-.707.293l-6.351,6.349A6.021,6.021,0,0,0,16.3,42.748h.007a5.98,5.98,0,0,0,4.26-1.774l6.315-6.37a1,1,0,0,0,.289-.7v-.594l2.732-.546a1,1,0,0,0,.511-1.688l-2.085-2.085,3.146-2.854,3.877,3.876c-1.087,3.007-.042,7.03,2.6,9.67a9.135,9.135,0,0,0,6.442,2.685,8.8,8.8,0,0,0,2.3-.306,1,1,0,0,0,.538-1.565l-3.722-4.963,3.016-3.016,4.963,3.722a1,1,0,0,0,1.565-.538,9.064,9.064,0,0,0-2.379-8.747,9.946,9.946,0,0,0-9.644-2.573L37.4,20.743,42.617,16H59a1,1,0,0,1,1,1V44H4V17A1,1,0,0,1,5,16ZM42,60H22l1.5-2h17Zm-4.18-4H26.18l.667-4H37.153ZM59,50H5a1,1,0,0,1-1-1V46H60v3A1,1,0,0,1,59,50Z"/></g></svg>
