<?xml version="1.0"?>
<svg xmlns="http://www.w3.org/2000/svg" viewBox="0 0 64 64" width="28" height="28"><g id="diamond"><path d="M57,27a.982.982,0,0,0-.385-.769L52.456,12.706A1,1,0,0,0,51.5,12h-39a1,1,0,0,0-.956.706L7.385,26.231a.961.961,0,0,0,.089,1.6L31.182,61.575c.005.007.011.012.017.019a.6.6,0,0,0,.048.053l.022.025c.015.017.028.034.044.049h0c.008.007.013.016.021.023s.042.031.063.047a.687.687,0,0,0,.074.05,1.026,1.026,0,0,0,.117.065l.055.022c.01,0,.016.012.026.015l.014,0,.041.011a.907.907,0,0,0,.552,0l.041-.011.014,0c.01,0,.016-.011.026-.015l.056-.022a1.1,1.1,0,0,0,.116-.065.59.59,0,0,0,.073-.05.752.752,0,0,0,.064-.047c.008-.007.013-.015.021-.023h0c.016-.015.029-.032.044-.048l.022-.026a.6.6,0,0,0,.048-.053c.006-.007.012-.012.017-.019L56.526,27.829A.981.981,0,0,0,57,27ZM19.346,28l9.312,26.5L10.038,28ZM31,14v5.372L29.823,23H25.84a1,1,0,0,0-.587,1.81L26.9,26H21.36l2.769-12Zm8.871,0L42.64,26H37.1l1.643-1.19A1,1,0,0,0,38.16,23H34.177L33,19.372V14ZM30.32,27.936a.988.988,0,0,0,.039-1.864,1,1,0,0,0-.122-.122L28.926,25H30.55a1,1,0,0,0,.951-.691l.5-1.538.5,1.538A1,1,0,0,0,33.45,25h1.624l-1.311.95a1,1,0,0,0-.122.122.988.988,0,0,0,.039,1.864l.222.683-.911-.664a.992.992,0,0,0-1.982,0l-.911.664Zm2.68,2.5,2.211,1.612a1,1,0,0,0,1.54-1.115L35.8,28h6.732L33,55.138ZM28.2,28l-.948,2.933a1,1,0,0,0,1.54,1.115L31,30.436v24.7L21.465,28Zm16.457,0h9.308L35.342,54.5Zm9.8-2H44.693L41.924,14h8.838ZM13.238,14h8.838L19.307,26H9.548Z"/><path d="M42,10a1,1,0,0,0,.833-.445l4-6a1,1,0,1,0-1.664-1.11l-4,6A1,1,0,0,0,42,10Z"/><path d="M50,11a.993.993,0,0,0,.65-.241l7-6a1,1,0,0,0-1.3-1.518l-7,6A1,1,0,0,0,50,11Z"/><path d="M56.2,19.6a1,1,0,0,0,1.4.2l4-3a1,1,0,1,0-1.2-1.6l-4,3A1,1,0,0,0,56.2,19.6Z"/><path d="M61,26H59a1,1,0,0,0,0,2h2a1,1,0,0,0,0-2Z"/><path d="M58.707,33.293a1,1,0,0,0-1.414,1.414l3,3a1,1,0,0,0,1.414-1.414Z"/><path d="M21.168,9.555a1,1,0,0,0,1.664-1.11l-4-6a1,1,0,1,0-1.664,1.11Z"/><path d="M13.35,10.759a1,1,0,1,0,1.3-1.518l-7-6a1,1,0,0,0-1.3,1.518Z"/><path d="M6.4,19.8a1,1,0,0,0,1.2-1.6l-4-3a1,1,0,0,0-1.2,1.6Z"/><path d="M3,28H5a1,1,0,0,0,0-2H3a1,1,0,0,0,0,2Z"/><path d="M5.293,33.293l-3,3a1,1,0,1,0,1.414,1.414l3-3a1,1,0,0,0-1.414-1.414Z"/><path d="M32,9a1,1,0,0,0,1-1V2a1,1,0,0,0-2,0V8A1,1,0,0,0,32,9Z"/></g></svg>
