<svg width="375" height="188" viewBox="0 0 375 188" fill="none" xmlns="http://www.w3.org/2000/svg">
<path id="Dots for Feel diff" opacity="0.345308" fill-rule="evenodd" clip-rule="evenodd" d="M924 6C924 9.31371 926.686 12 930 12C933.314 12 936 9.31371 936 6C936 2.68629 933.314 0 930 0C926.686 0 924 2.68629 924 6ZM924 50C924 53.3137 926.686 56 930 56C933.314 56 936 53.3137 936 50C936 46.6863 933.314 44 930 44C926.686 44 924 46.6863 924 50ZM930 100C926.686 100 924 97.3137 924 94C924 90.6863 926.686 88 930 88C933.314 88 936 90.6863 936 94C936 97.3137 933.314 100 930 100ZM880 6C880 9.31371 882.686 12 886 12C889.314 12 892 9.31371 892 6C892 2.68629 889.314 0 886 0C882.686 0 880 2.68629 880 6ZM886 56C882.686 56 880 53.3137 880 50C880 46.6863 882.686 44 886 44C889.314 44 892 46.6863 892 50C892 53.3137 889.314 56 886 56ZM880 94C880 97.3137 882.686 100 886 100C889.314 100 892 97.3137 892 94C892 90.6863 889.314 88 886 88C882.686 88 880 90.6863 880 94ZM842 12C838.686 12 836 9.31371 836 6C836 2.68629 838.686 0 842 0C845.314 0 848 2.68629 848 6C848 9.31371 845.314 12 842 12ZM836 50C836 53.3137 838.686 56 842 56C845.314 56 848 53.3137 848 50C848 46.6863 845.314 44 842 44C838.686 44 836 46.6863 836 50ZM842 100C838.686 100 836 97.3137 836 94C836 90.6863 838.686 88 842 88C845.314 88 848 90.6863 848 94C848 97.3137 845.314 100 842 100ZM792 6C792 9.31371 794.686 12 798 12C801.314 12 804 9.31371 804 6C804 2.68629 801.314 0 798 0C794.686 0 792 2.68629 792 6ZM798 56C794.686 56 792 53.3137 792 50C792 46.6863 794.686 44 798 44C801.314 44 804 46.6863 804 50C804 53.3137 801.314 56 798 56ZM792 94C792 97.3137 794.686 100 798 100C801.314 100 804 97.3137 804 94C804 90.6863 801.314 88 798 88C794.686 88 792 90.6863 792 94ZM754 12C750.686 12 748 9.31371 748 6C748 2.68629 750.686 0 754 0C757.314 0 760 2.68629 760 6C760 9.31371 757.314 12 754 12ZM748 50C748 53.3137 750.686 56 754 56C757.314 56 760 53.3137 760 50C760 46.6863 757.314 44 754 44C750.686 44 748 46.6863 748 50ZM754 100C750.686 100 748 97.3137 748 94C748 90.6863 750.686 88 754 88C757.314 88 760 90.6863 760 94C760 97.3137 757.314 100 754 100ZM704 6C704 9.31371 706.686 12 710 12C713.314 12 716 9.31371 716 6C716 2.68629 713.314 0 710 0C706.686 0 704 2.68629 704 6ZM710 56C706.686 56 704 53.3137 704 50C704 46.6863 706.686 44 710 44C713.314 44 716 46.6863 716 50C716 53.3137 713.314 56 710 56ZM704 94C704 97.3137 706.686 100 710 100C713.314 100 716 97.3137 716 94C716 90.6863 713.314 88 710 88C706.686 88 704 90.6863 704 94ZM666 12C662.686 12 660 9.31371 660 6C660 2.68629 662.686 0 666 0C669.314 0 672 2.68629 672 6C672 9.31371 669.314 12 666 12ZM660 50C660 53.3137 662.686 56 666 56C669.314 56 672 53.3137 672 50C672 46.6863 669.314 44 666 44C662.686 44 660 46.6863 660 50ZM666 100C662.686 100 660 97.3137 660 94C660 90.6863 662.686 88 666 88C669.314 88 672 90.6863 672 94C672 97.3137 669.314 100 666 100ZM616 6C616 9.31371 618.686 12 622 12C625.314 12 628 9.31371 628 6C628 2.68629 625.314 0 622 0C618.686 0 616 2.68629 616 6ZM622 56C618.686 56 616 53.3137 616 50C616 46.6863 618.686 44 622 44C625.314 44 628 46.6863 628 50C628 53.3137 625.314 56 622 56ZM616 94C616 97.3137 618.686 100 622 100C625.314 100 628 97.3137 628 94C628 90.6863 625.314 88 622 88C618.686 88 616 90.6863 616 94ZM578 12C574.686 12 572 9.31371 572 6C572 2.68629 574.686 0 578 0C581.314 0 584 2.68629 584 6C584 9.31371 581.314 12 578 12ZM572 50C572 53.3137 574.686 56 578 56C581.314 56 584 53.3137 584 50C584 46.6863 581.314 44 578 44C574.686 44 572 46.6863 572 50ZM578 100C574.686 100 572 97.3137 572 94C572 90.6863 574.686 88 578 88C581.314 88 584 90.6863 584 94C584 97.3137 581.314 100 578 100ZM528 6C528 9.31371 530.686 12 534 12C537.314 12 540 9.31371 540 6C540 2.68629 537.314 0 534 0C530.686 0 528 2.68629 528 6ZM534 56C530.686 56 528 53.3137 528 50C528 46.6863 530.686 44 534 44C537.314 44 540 46.6863 540 50C540 53.3137 537.314 56 534 56ZM528 94C528 97.3137 530.686 100 534 100C537.314 100 540 97.3137 540 94C540 90.6863 537.314 88 534 88C530.686 88 528 90.6863 528 94ZM490 12C486.686 12 484 9.31371 484 6C484 2.68629 486.686 0 490 0C493.314 0 496 2.68629 496 6C496 9.31371 493.314 12 490 12ZM484 50C484 53.3137 486.686 56 490 56C493.314 56 496 53.3137 496 50C496 46.6863 493.314 44 490 44C486.686 44 484 46.6863 484 50ZM490 100C486.686 100 484 97.3137 484 94C484 90.6863 486.686 88 490 88C493.314 88 496 90.6863 496 94C496 97.3137 493.314 100 490 100ZM440 6C440 9.31371 442.686 12 446 12C449.314 12 452 9.31371 452 6C452 2.68629 449.314 0 446 0C442.686 0 440 2.68629 440 6ZM446 56C442.686 56 440 53.3137 440 50C440 46.6863 442.686 44 446 44C449.314 44 452 46.6863 452 50C452 53.3137 449.314 56 446 56ZM440 94C440 97.3137 442.686 100 446 100C449.314 100 452 97.3137 452 94C452 90.6863 449.314 88 446 88C442.686 88 440 90.6863 440 94ZM402 12C398.686 12 396 9.31371 396 6C396 2.68629 398.686 0 402 0C405.314 0 408 2.68629 408 6C408 9.31371 405.314 12 402 12ZM396 50C396 53.3137 398.686 56 402 56C405.314 56 408 53.3137 408 50C408 46.6863 405.314 44 402 44C398.686 44 396 46.6863 396 50ZM402 100C398.686 100 396 97.3137 396 94C396 90.6863 398.686 88 402 88C405.314 88 408 90.6863 408 94C408 97.3137 405.314 100 402 100ZM352 6C352 9.31371 354.686 12 358 12C361.314 12 364 9.31371 364 6C364 2.68629 361.314 0 358 0C354.686 0 352 2.68629 352 6ZM358 56C354.686 56 352 53.3137 352 50C352 46.6863 354.686 44 358 44C361.314 44 364 46.6863 364 50C364 53.3137 361.314 56 358 56ZM352 94C352 97.3137 354.686 100 358 100C361.314 100 364 97.3137 364 94C364 90.6863 361.314 88 358 88C354.686 88 352 90.6863 352 94ZM314 12C310.686 12 308 9.31371 308 6C308 2.68629 310.686 0 314 0C317.314 0 320 2.68629 320 6C320 9.31371 317.314 12 314 12ZM308 50C308 53.3137 310.686 56 314 56C317.314 56 320 53.3137 320 50C320 46.6863 317.314 44 314 44C310.686 44 308 46.6863 308 50ZM314 100C310.686 100 308 97.3137 308 94C308 90.6863 310.686 88 314 88C317.314 88 320 90.6863 320 94C320 97.3137 317.314 100 314 100ZM264 6C264 9.31371 266.686 12 270 12C273.314 12 276 9.31371 276 6C276 2.68629 273.314 0 270 0C266.686 0 264 2.68629 264 6ZM270 56C266.686 56 264 53.3137 264 50C264 46.6863 266.686 44 270 44C273.314 44 276 46.6863 276 50C276 53.3137 273.314 56 270 56ZM264 94C264 97.3137 266.686 100 270 100C273.314 100 276 97.3137 276 94C276 90.6863 273.314 88 270 88C266.686 88 264 90.6863 264 94ZM226 12C222.686 12 220 9.31371 220 6C220 2.68629 222.686 0 226 0C229.314 0 232 2.68629 232 6C232 9.31371 229.314 12 226 12ZM220 50C220 53.3137 222.686 56 226 56C229.314 56 232 53.3137 232 50C232 46.6863 229.314 44 226 44C222.686 44 220 46.6863 220 50ZM226 100C222.686 100 220 97.3137 220 94C220 90.6863 222.686 88 226 88C229.314 88 232 90.6863 232 94C232 97.3137 229.314 100 226 100ZM176 6C176 9.31371 178.686 12 182 12C185.314 12 188 9.31371 188 6C188 2.68629 185.314 0 182 0C178.686 0 176 2.68629 176 6ZM182 56C178.686 56 176 53.3137 176 50C176 46.6863 178.686 44 182 44C185.314 44 188 46.6863 188 50C188 53.3137 185.314 56 182 56ZM176 94C176 97.3137 178.686 100 182 100C185.314 100 188 97.3137 188 94C188 90.6863 185.314 88 182 88C178.686 88 176 90.6863 176 94ZM138 12C134.686 12 132 9.31371 132 6C132 2.68629 134.686 0 138 0C141.314 0 144 2.68629 144 6C144 9.31371 141.314 12 138 12ZM132 50C132 53.3137 134.686 56 138 56C141.314 56 144 53.3137 144 50C144 46.6863 141.314 44 138 44C134.686 44 132 46.6863 132 50ZM138 100C134.686 100 132 97.3137 132 94C132 90.6863 134.686 88 138 88C141.314 88 144 90.6863 144 94C144 97.3137 141.314 100 138 100ZM88 6C88 9.31371 90.6863 12 94 12C97.3137 12 100 9.31371 100 6C100 2.68629 97.3137 0 94 0C90.6863 0 88 2.68629 88 6ZM50 12C46.6863 12 44 9.31371 44 6C44 2.68629 46.6863 0 50 0C53.3137 0 56 2.68629 56 6C56 9.31371 53.3137 12 50 12ZM0 6C0 9.31371 2.68628 12 6 12C9.31372 12 12 9.31371 12 6C12 2.68629 9.31372 0 6 0C2.68628 0 0 2.68629 0 6ZM94 56C90.6863 56 88 53.3137 88 50C88 46.6863 90.6863 44 94 44C97.3137 44 100 46.6863 100 50C100 53.3137 97.3137 56 94 56ZM44 50C44 53.3137 46.6863 56 50 56C53.3137 56 56 53.3137 56 50C56 46.6863 53.3137 44 50 44C46.6863 44 44 46.6863 44 50ZM6 56C2.68628 56 0 53.3137 0 50C0 46.6863 2.68628 44 6 44C9.31372 44 12 46.6863 12 50C12 53.3137 9.31372 56 6 56ZM88 94C88 97.3137 90.6863 100 94 100C97.3137 100 100 97.3137 100 94C100 90.6863 97.3137 88 94 88C90.6863 88 88 90.6863 88 94ZM50 100C46.6863 100 44 97.3137 44 94C44 90.6863 46.6863 88 50 88C53.3137 88 56 90.6863 56 94C56 97.3137 53.3137 100 50 100ZM0 94C0 97.3137 2.68628 100 6 100C9.31372 100 12 97.3137 12 94C12 90.6863 9.31372 88 6 88C2.68628 88 0 90.6863 0 94ZM930 144C926.686 144 924 141.314 924 138C924 134.686 926.686 132 930 132C933.314 132 936 134.686 936 138C936 141.314 933.314 144 930 144ZM880 138C880 141.314 882.686 144 886 144C889.314 144 892 141.314 892 138C892 134.686 889.314 132 886 132C882.686 132 880 134.686 880 138ZM842 144C838.686 144 836 141.314 836 138C836 134.686 838.686 132 842 132C845.314 132 848 134.686 848 138C848 141.314 845.314 144 842 144ZM792 138C792 141.314 794.686 144 798 144C801.314 144 804 141.314 804 138C804 134.686 801.314 132 798 132C794.686 132 792 134.686 792 138ZM754 144C750.686 144 748 141.314 748 138C748 134.686 750.686 132 754 132C757.314 132 760 134.686 760 138C760 141.314 757.314 144 754 144ZM704 138C704 141.314 706.686 144 710 144C713.314 144 716 141.314 716 138C716 134.686 713.314 132 710 132C706.686 132 704 134.686 704 138ZM666 144C662.686 144 660 141.314 660 138C660 134.686 662.686 132 666 132C669.314 132 672 134.686 672 138C672 141.314 669.314 144 666 144ZM616 138C616 141.314 618.686 144 622 144C625.314 144 628 141.314 628 138C628 134.686 625.314 132 622 132C618.686 132 616 134.686 616 138ZM578 144C574.686 144 572 141.314 572 138C572 134.686 574.686 132 578 132C581.314 132 584 134.686 584 138C584 141.314 581.314 144 578 144ZM528 138C528 141.314 530.686 144 534 144C537.314 144 540 141.314 540 138C540 134.686 537.314 132 534 132C530.686 132 528 134.686 528 138ZM490 144C486.686 144 484 141.314 484 138C484 134.686 486.686 132 490 132C493.314 132 496 134.686 496 138C496 141.314 493.314 144 490 144ZM440 138C440 141.314 442.686 144 446 144C449.314 144 452 141.314 452 138C452 134.686 449.314 132 446 132C442.686 132 440 134.686 440 138ZM402 144C398.686 144 396 141.314 396 138C396 134.686 398.686 132 402 132C405.314 132 408 134.686 408 138C408 141.314 405.314 144 402 144ZM352 138C352 141.314 354.686 144 358 144C361.314 144 364 141.314 364 138C364 134.686 361.314 132 358 132C354.686 132 352 134.686 352 138ZM314 144C310.686 144 308 141.314 308 138C308 134.686 310.686 132 314 132C317.314 132 320 134.686 320 138C320 141.314 317.314 144 314 144ZM264 138C264 141.314 266.686 144 270 144C273.314 144 276 141.314 276 138C276 134.686 273.314 132 270 132C266.686 132 264 134.686 264 138ZM226 144C222.686 144 220 141.314 220 138C220 134.686 222.686 132 226 132C229.314 132 232 134.686 232 138C232 141.314 229.314 144 226 144ZM176 138C176 141.314 178.686 144 182 144C185.314 144 188 141.314 188 138C188 134.686 185.314 132 182 132C178.686 132 176 134.686 176 138ZM138 144C134.686 144 132 141.314 132 138C132 134.686 134.686 132 138 132C141.314 132 144 134.686 144 138C144 141.314 141.314 144 138 144ZM88 138C88 141.314 90.6863 144 94 144C97.3137 144 100 141.314 100 138C100 134.686 97.3137 132 94 132C90.6863 132 88 134.686 88 138ZM50 144C46.6863 144 44 141.314 44 138C44 134.686 46.6863 132 50 132C53.3137 132 56 134.686 56 138C56 141.314 53.3137 144 50 144ZM0 138C0 141.314 2.68628 144 6 144C9.31372 144 12 141.314 12 138C12 134.686 9.31372 132 6 132C2.68628 132 0 134.686 0 138ZM930 188C926.686 188 924 185.314 924 182C924 178.686 926.686 176 930 176C933.314 176 936 178.686 936 182C936 185.314 933.314 188 930 188ZM880 182C880 185.314 882.686 188 886 188C889.314 188 892 185.314 892 182C892 178.686 889.314 176 886 176C882.686 176 880 178.686 880 182ZM842 188C838.686 188 836 185.314 836 182C836 178.686 838.686 176 842 176C845.314 176 848 178.686 848 182C848 185.314 845.314 188 842 188ZM792 182C792 185.314 794.686 188 798 188C801.314 188 804 185.314 804 182C804 178.686 801.314 176 798 176C794.686 176 792 178.686 792 182ZM754 188C750.686 188 748 185.314 748 182C748 178.686 750.686 176 754 176C757.314 176 760 178.686 760 182C760 185.314 757.314 188 754 188ZM704 182C704 185.314 706.686 188 710 188C713.314 188 716 185.314 716 182C716 178.686 713.314 176 710 176C706.686 176 704 178.686 704 182ZM666 188C662.686 188 660 185.314 660 182C660 178.686 662.686 176 666 176C669.314 176 672 178.686 672 182C672 185.314 669.314 188 666 188ZM616 182C616 185.314 618.686 188 622 188C625.314 188 628 185.314 628 182C628 178.686 625.314 176 622 176C618.686 176 616 178.686 616 182ZM578 188C574.686 188 572 185.314 572 182C572 178.686 574.686 176 578 176C581.314 176 584 178.686 584 182C584 185.314 581.314 188 578 188ZM528 182C528 185.314 530.686 188 534 188C537.314 188 540 185.314 540 182C540 178.686 537.314 176 534 176C530.686 176 528 178.686 528 182ZM490 188C486.686 188 484 185.314 484 182C484 178.686 486.686 176 490 176C493.314 176 496 178.686 496 182C496 185.314 493.314 188 490 188ZM440 182C440 185.314 442.686 188 446 188C449.314 188 452 185.314 452 182C452 178.686 449.314 176 446 176C442.686 176 440 178.686 440 182ZM402 188C398.686 188 396 185.314 396 182C396 178.686 398.686 176 402 176C405.314 176 408 178.686 408 182C408 185.314 405.314 188 402 188ZM352 182C352 185.314 354.686 188 358 188C361.314 188 364 185.314 364 182C364 178.686 361.314 176 358 176C354.686 176 352 178.686 352 182ZM314 188C310.686 188 308 185.314 308 182C308 178.686 310.686 176 314 176C317.314 176 320 178.686 320 182C320 185.314 317.314 188 314 188ZM264 182C264 185.314 266.686 188 270 188C273.314 188 276 185.314 276 182C276 178.686 273.314 176 270 176C266.686 176 264 178.686 264 182ZM226 188C222.686 188 220 185.314 220 182C220 178.686 222.686 176 226 176C229.314 176 232 178.686 232 182C232 185.314 229.314 188 226 188ZM176 182C176 185.314 178.686 188 182 188C185.314 188 188 185.314 188 182C188 178.686 185.314 176 182 176C178.686 176 176 178.686 176 182ZM138 188C134.686 188 132 185.314 132 182C132 178.686 134.686 176 138 176C141.314 176 144 178.686 144 182C144 185.314 141.314 188 138 188ZM88 182C88 185.314 90.6863 188 94 188C97.3137 188 100 185.314 100 182C100 178.686 97.3137 176 94 176C90.6863 176 88 178.686 88 182ZM50 188C46.6863 188 44 185.314 44 182C44 178.686 46.6863 176 50 176C53.3137 176 56 178.686 56 182C56 185.314 53.3137 188 50 188ZM0 182C0 185.314 2.68628 188 6 188C9.31372 188 12 185.314 12 182C12 178.686 9.31372 176 6 176C2.68628 176 0 178.686 0 182Z" fill="url(#paint0_linear)"/>
<defs>
<linearGradient id="paint0_linear" x1="1187.91" y1="135.475" x2="1094.08" y2="471.749" gradientUnits="userSpaceOnUse">
<stop stop-color="#87CFFF"/>
<stop offset="1" stop-color="#5C5CFF"/>
</linearGradient>
</defs>
</svg>
