<svg width="651" height="443" viewBox="0 0 651 443" fill="none" xmlns="http://www.w3.org/2000/svg">
<path fill-rule="evenodd" clip-rule="evenodd" d="M599.431 75.1364L649.863 263.309C652.945 274.81 649.658 287.081 641.24 295.499L503.499 433.24C495.081 441.658 482.81 444.945 471.309 441.863L283.136 391.431C271.635 388.349 262.651 379.365 259.569 367.864L209.137 179.691C206.055 168.19 209.342 155.919 217.76 147.501L355.501 9.76047C363.919 1.34178 376.19 -1.9455 387.691 1.13692L575.864 51.569C587.365 54.6515 596.349 63.6353 599.431 75.1364Z" fill="url(#paint0_linear)"/>
<g filter="url(#filter0_ddd)">
<rect x="27" y="69" width="483" height="320" rx="8" fill="white"/>
</g>
<path fill-rule="evenodd" clip-rule="evenodd" d="M65 124C65 119.582 68.5817 116 73 116L343 116C347.418 116 351 119.582 351 124V334C351 338.418 347.418 342 343 342H73C68.5817 342 65 338.418 65 334V124Z" fill="#EAE9EF"/>
<rect x="77" y="154" width="262" height="174" rx="7" fill="white"/>
<path fill-rule="evenodd" clip-rule="evenodd" d="M65 124C65 119.582 68.5817 116 73 116L343 116C347.418 116 351 119.582 351 124V142H65V124Z" fill="#70669A"/>
<path fill-rule="evenodd" clip-rule="evenodd" d="M81 133C83.2091 133 85 131.209 85 129C85 126.791 83.2091 125 81 125C78.7909 125 77 126.791 77 129C77 131.209 78.7909 133 81 133Z" fill="white"/>
<path fill-rule="evenodd" clip-rule="evenodd" d="M94 133C96.2091 133 98 131.209 98 129C98 126.791 96.2091 125 94 125C91.7909 125 90 126.791 90 129C90 131.209 91.7909 133 94 133Z" fill="white"/>
<path fill-rule="evenodd" clip-rule="evenodd" d="M108 133C110.209 133 112 131.209 112 129C112 126.791 110.209 125 108 125C105.791 125 104 126.791 104 129C104 131.209 105.791 133 108 133Z" fill="white"/>
<rect x="127" y="123" width="211" height="12" rx="6" fill="white"/>
<circle cx="106.236" cy="189.236" r="2.55366" fill="#EAE9EF"/>
<rect x="96.5107" y="179" width="43.9659" height="58.2664" rx="2" stroke="#EAE9EF" stroke-width="2"/>
<rect x="101.639" y="210.219" width="20.4293" height="1.5322" rx="0.766098" fill="#EAE9EF"/>
<rect x="101.639" y="215.326" width="27.5795" height="1.5322" rx="0.766098" fill="#EAE9EF"/>
<path d="M121.791 191.486C122.368 190.486 123.812 190.486 124.389 191.486L127.983 197.711C128.56 198.711 127.839 199.961 126.684 199.961H119.496C118.341 199.961 117.619 198.711 118.197 197.711L121.791 191.486Z" fill="#EAE9EF"/>
<path d="M113.363 188.932C113.941 187.932 115.384 187.932 115.961 188.932L121.104 197.839C121.681 198.839 120.959 200.089 119.805 200.089H109.52C108.365 200.089 107.644 198.839 108.221 197.839L113.363 188.932Z" fill="#EAE9EF"/>
<rect x="101.639" y="223.965" width="33.7083" height="8.68244" rx="1" fill="#505AD5"/>
<rect x="107.257" y="227.541" width="22.9829" height="1.5322" rx="0.766098" fill="#3B45C8"/>
<circle cx="165.991" cy="189.236" r="2.55366" fill="#EAE9EF"/>
<rect x="156" y="179" width="43" height="58" rx="2" stroke="#EAE9EF" stroke-width="2"/>
<rect x="161.395" y="212.219" width="20.4293" height="1.5322" rx="0.766098" fill="#EAE9EF"/>
<rect x="161.395" y="217.326" width="27.5795" height="1.5322" rx="0.766098" fill="#EAE9EF"/>
<path d="M181.547 191.486C182.124 190.486 183.567 190.486 184.145 191.486L187.739 197.711C188.316 198.711 187.595 199.961 186.44 199.961H179.252C178.097 199.961 177.375 198.711 177.952 197.711L181.547 191.486Z" fill="#EAE9EF"/>
<path d="M173.119 188.932C173.697 187.932 175.14 187.932 175.717 188.932L180.86 197.839C181.437 198.839 180.715 200.089 179.561 200.089H169.276C168.121 200.089 167.4 198.839 167.977 197.839L173.119 188.932Z" fill="#EAE9EF"/>
<rect x="161.395" y="223.966" width="33.7083" height="8.68244" rx="1" fill="#505AD5"/>
<rect x="167.013" y="227.541" width="22.9829" height="1.5322" rx="0.766098" fill="#3B45C8"/>
<circle cx="225.748" cy="189.236" r="2.55366" fill="#EAE9EF"/>
<rect x="216" y="179" width="43" height="58" rx="2" stroke="#EAE9EF" stroke-width="2"/>
<rect x="221.151" y="212.219" width="20.4293" height="1.5322" rx="0.766098" fill="#EAE9EF"/>
<rect x="221.151" y="217.326" width="27.5795" height="1.5322" rx="0.766098" fill="#EAE9EF"/>
<path d="M241.302 191.486C241.88 190.486 243.323 190.486 243.9 191.486L247.494 197.711C248.072 198.711 247.35 199.961 246.195 199.961H239.007C237.852 199.961 237.131 198.711 237.708 197.711L241.302 191.486Z" fill="#EAE9EF"/>
<path d="M232.875 188.932C233.452 187.932 234.896 187.932 235.473 188.932L240.615 197.839C241.193 198.839 240.471 200.089 239.316 200.089H229.032C227.877 200.089 227.155 198.839 227.733 197.839L232.875 188.932Z" fill="#EAE9EF"/>
<rect x="221.151" y="223.966" width="33.7083" height="8.68244" rx="1" fill="#505AD5"/>
<rect x="226.768" y="227.541" width="22.9829" height="1.5322" rx="0.766098" fill="#3B45C8"/>
<circle cx="285.503" cy="189.236" r="2.55366" fill="#EAE9EF"/>
<rect x="275" y="179" width="43" height="58" rx="2" stroke="#EAE9EF" stroke-width="2"/>
<rect x="280.906" y="212.219" width="20.4293" height="1.5322" rx="0.766098" fill="#EAE9EF"/>
<rect x="280.906" y="217.326" width="27.5795" height="1.5322" rx="0.766098" fill="#EAE9EF"/>
<path d="M301.058 191.486C301.635 190.486 303.079 190.486 303.656 191.486L307.25 197.711C307.828 198.711 307.106 199.961 305.951 199.961H298.763C297.608 199.961 296.886 198.711 297.464 197.711L301.058 191.486Z" fill="#EAE9EF"/>
<path d="M292.631 188.932C293.208 187.932 294.651 187.932 295.229 188.932L300.371 197.839C300.948 198.839 300.227 200.089 299.072 200.089H288.787C287.633 200.089 286.911 198.839 287.488 197.839L292.631 188.932Z" fill="#EAE9EF"/>
<rect x="280.906" y="223.966" width="33.7083" height="8.68244" rx="1" fill="#505AD5"/>
<rect x="286.524" y="227.541" width="22.9829" height="1.5322" rx="0.766098" fill="#3B45C8"/>
<circle cx="106.725" cy="259.236" r="2.55366" fill="#EAE9EF"/>
<rect x="97" y="249" width="43.9659" height="58.2664" rx="2" stroke="#EAE9EF" stroke-width="2"/>
<rect x="102.128" y="280.219" width="20.4293" height="1.5322" rx="0.766098" fill="#EAE9EF"/>
<rect x="102.128" y="285.326" width="27.5795" height="1.5322" rx="0.766098" fill="#EAE9EF"/>
<path d="M122.28 261.486C122.857 260.486 124.301 260.486 124.878 261.486L128.472 267.711C129.05 268.711 128.328 269.961 127.173 269.961H119.985C118.83 269.961 118.108 268.711 118.686 267.711L122.28 261.486Z" fill="#EAE9EF"/>
<path d="M113.853 258.932C114.43 257.932 115.873 257.932 116.451 258.932L121.593 267.839C122.17 268.839 121.449 270.089 120.294 270.089H110.009C108.855 270.089 108.133 268.839 108.71 267.839L113.853 258.932Z" fill="#EAE9EF"/>
<rect x="102.128" y="293.965" width="33.7083" height="8.68244" rx="1" fill="#505AD5"/>
<rect x="107.746" y="297.541" width="22.9829" height="1.5322" rx="0.766098" fill="#3B45C8"/>
<circle cx="166.48" cy="259.236" r="2.55366" fill="#EAE9EF"/>
<rect x="156.489" y="249" width="43" height="58" rx="2" stroke="#EAE9EF" stroke-width="2"/>
<rect x="161.884" y="282.219" width="20.4293" height="1.5322" rx="0.766098" fill="#EAE9EF"/>
<rect x="161.884" y="287.326" width="27.5795" height="1.5322" rx="0.766098" fill="#EAE9EF"/>
<path d="M182.036 261.486C182.613 260.486 184.057 260.486 184.634 261.486L188.228 267.711C188.806 268.711 188.084 269.961 186.929 269.961H179.741C178.586 269.961 177.864 268.711 178.442 267.711L182.036 261.486Z" fill="#EAE9EF"/>
<path d="M173.609 258.932C174.186 257.932 175.629 257.932 176.207 258.932L181.349 267.839C181.926 268.839 181.205 270.089 180.05 270.089H169.765C168.611 270.089 167.889 268.839 168.466 267.839L173.609 258.932Z" fill="#EAE9EF"/>
<rect x="161.884" y="293.966" width="33.7083" height="8.68244" rx="1" fill="#505AD5"/>
<rect x="167.502" y="297.541" width="22.9829" height="1.5322" rx="0.766098" fill="#3B45C8"/>
<circle cx="226.237" cy="259.236" r="2.55366" fill="#EAE9EF"/>
<rect x="216.489" y="249" width="43" height="58" rx="2" stroke="#EAE9EF" stroke-width="2"/>
<rect x="221.64" y="282.219" width="20.4293" height="1.5322" rx="0.766098" fill="#EAE9EF"/>
<rect x="221.64" y="287.326" width="27.5795" height="1.5322" rx="0.766098" fill="#EAE9EF"/>
<path d="M241.791 261.486C242.369 260.486 243.812 260.486 244.39 261.486L247.984 267.711C248.561 268.711 247.839 269.961 246.685 269.961H239.496C238.342 269.961 237.62 268.711 238.197 267.711L241.791 261.486Z" fill="#EAE9EF"/>
<path d="M233.364 258.932C233.941 257.932 235.385 257.932 235.962 258.932L241.104 267.839C241.682 268.839 240.96 270.089 239.805 270.089H229.521C228.366 270.089 227.644 268.839 228.222 267.839L233.364 258.932Z" fill="#EAE9EF"/>
<rect x="221.64" y="293.966" width="33.7083" height="8.68244" rx="1" fill="#505AD5"/>
<rect x="227.258" y="297.541" width="22.9829" height="1.5322" rx="0.766098" fill="#3B45C8"/>
<circle cx="285.992" cy="259.236" r="2.55366" fill="#EAE9EF"/>
<rect x="275.489" y="249" width="43" height="58" rx="2" stroke="#EAE9EF" stroke-width="2"/>
<rect x="281.395" y="282.219" width="20.4293" height="1.5322" rx="0.766098" fill="#EAE9EF"/>
<rect x="281.395" y="287.326" width="27.5795" height="1.5322" rx="0.766098" fill="#EAE9EF"/>
<path d="M301.547 261.486C302.125 260.486 303.568 260.486 304.145 261.486L307.74 267.711C308.317 268.711 307.595 269.961 306.441 269.961H299.252C298.097 269.961 297.376 268.711 297.953 267.711L301.547 261.486Z" fill="#EAE9EF"/>
<path d="M293.12 258.932C293.697 257.932 295.141 257.932 295.718 258.932L300.86 267.839C301.438 268.839 300.716 270.089 299.561 270.089H289.277C288.122 270.089 287.4 268.839 287.978 267.839L293.12 258.932Z" fill="#EAE9EF"/>
<rect x="281.395" y="293.966" width="33.7083" height="8.68244" rx="1" fill="#505AD5"/>
<rect x="287.013" y="297.541" width="22.9829" height="1.5322" rx="0.766098" fill="#3B45C8"/>
<g filter="url(#filter1_d)">
<rect x="285" y="347" width="240" height="175" rx="8" transform="rotate(-90 285 347)" fill="white"/>
</g>
<rect x="337" y="286" width="71.6556" height="18.4567" rx="3" fill="#505AD5"/>
<rect x="348" y="293.6" width="48.8561" height="3.25707" rx="1.62854" fill="#3B45C8"/>
<path d="M332.08 204V199.26H335.48C338.36 199.26 339.96 197.28 339.96 194.96C339.96 192.62 338.38 190.66 335.48 190.66H329.24V204H332.08ZM335.1 196.76H332.08V193.16H335.1C336.22 193.16 337.06 193.84 337.06 194.96C337.06 196.06 336.22 196.76 335.1 196.76ZM349.61 204V197.76C349.61 194.98 347.59 194.1 345.39 194.1C343.87 194.1 342.35 194.58 341.17 195.62L342.13 197.32C342.95 196.56 343.91 196.18 344.95 196.18C346.23 196.18 347.07 196.82 347.07 197.8V199.1C346.43 198.34 345.29 197.92 344.01 197.92C342.47 197.92 340.65 198.78 340.65 201.04C340.65 203.2 342.47 204.24 344.01 204.24C345.27 204.24 346.41 203.78 347.07 203V204H349.61ZM345.03 202.52C344.03 202.52 343.21 202 343.21 201.1C343.21 200.16 344.03 199.64 345.03 199.64C345.85 199.64 346.65 199.92 347.07 200.48V201.68C346.65 202.24 345.85 202.52 345.03 202.52ZM351.789 207.78C352.109 207.86 352.749 207.92 353.049 207.92C354.709 207.88 355.989 207.4 356.709 205.58L361.249 194.34H358.509L355.989 201.06L353.469 194.34H350.749L354.669 204.14L354.309 204.96C354.069 205.48 353.629 205.66 352.969 205.66C352.729 205.66 352.389 205.6 352.169 205.5L351.789 207.78ZM376.923 204V197.02C376.923 195.04 375.863 194.1 374.083 194.1C372.603 194.1 371.323 194.98 370.763 195.86C370.403 194.76 369.503 194.1 368.083 194.1C366.603 194.1 365.323 195.02 364.923 195.6V194.34H362.383V204H364.923V197.5C365.303 196.96 366.043 196.36 366.923 196.36C367.963 196.36 368.363 197 368.363 197.9V204H370.923V197.48C371.283 196.96 372.023 196.36 372.923 196.36C373.963 196.36 374.363 197 374.363 197.9V204H376.923ZM383.954 204.24C385.454 204.24 386.974 203.78 387.934 202.9L386.814 201.26C386.194 201.86 385.054 202.22 384.234 202.22C382.594 202.22 381.614 201.2 381.454 199.98H388.634V199.42C388.634 196.26 386.674 194.1 383.794 194.1C380.854 194.1 378.794 196.36 378.794 199.16C378.794 202.26 381.014 204.24 383.954 204.24ZM386.174 198.26H381.414C381.534 197.3 382.214 196.12 383.794 196.12C385.474 196.12 386.114 197.34 386.174 198.26ZM399.529 204V197.18C399.529 195.3 398.509 194.1 396.389 194.1C394.809 194.1 393.629 194.86 393.009 195.6V194.34H390.469V204H393.009V197.5C393.429 196.92 394.209 196.36 395.209 196.36C396.289 196.36 396.989 196.82 396.989 198.16V204H399.529ZM405.291 204.24C406.351 204.24 407.031 203.96 407.411 203.62L406.871 201.7C406.731 201.84 406.371 201.98 405.991 201.98C405.431 201.98 405.111 201.52 405.111 200.92V196.56H407.071V194.34H405.111V191.7H402.551V194.34H400.951V196.56H402.551V201.6C402.551 203.32 403.511 204.24 405.291 204.24ZM412.289 204.24C414.969 204.24 416.469 202.9 416.469 201.14C416.469 197.24 410.749 198.44 410.749 197C410.749 196.46 411.349 196.04 412.269 196.04C413.449 196.04 414.549 196.54 415.129 197.16L416.149 195.42C415.189 194.66 413.889 194.1 412.249 194.1C409.709 194.1 408.289 195.52 408.289 197.14C408.289 200.94 414.029 199.64 414.029 201.24C414.029 201.84 413.509 202.28 412.409 202.28C411.209 202.28 409.769 201.62 409.069 200.96L407.969 202.74C408.989 203.68 410.609 204.24 412.289 204.24ZM356.22 228.24C357.72 228.24 359.24 227.78 360.2 226.9L359.08 225.26C358.46 225.86 357.32 226.22 356.5 226.22C354.86 226.22 353.88 225.2 353.72 223.98H360.9V223.42C360.9 220.26 358.94 218.1 356.06 218.1C353.12 218.1 351.06 220.36 351.06 223.16C351.06 226.26 353.28 228.24 356.22 228.24ZM358.44 222.26H353.68C353.8 221.3 354.48 220.12 356.06 220.12C357.74 220.12 358.38 221.34 358.44 222.26ZM365.275 228V221.62C365.695 221 366.815 220.52 367.655 220.52C367.935 220.52 368.175 220.54 368.355 220.58V218.1C367.155 218.1 365.955 218.8 365.275 219.66V218.34H362.735V228H365.275ZM372.482 228V221.62C372.902 221 374.022 220.52 374.862 220.52C375.142 220.52 375.382 220.54 375.562 220.58V218.1C374.362 218.1 373.162 218.8 372.482 219.66V218.34H369.942V228H372.482ZM381.629 228.24C384.829 228.24 386.749 225.92 386.749 223.16C386.749 220.42 384.829 218.1 381.629 218.1C378.449 218.1 376.529 220.42 376.529 223.16C376.529 225.92 378.449 228.24 381.629 228.24ZM381.629 225.98C380.049 225.98 379.169 224.68 379.169 223.16C379.169 221.66 380.049 220.36 381.629 220.36C383.209 220.36 384.109 221.66 384.109 223.16C384.109 224.68 383.209 225.98 381.629 225.98ZM391.173 228V221.62C391.593 221 392.713 220.52 393.553 220.52C393.833 220.52 394.073 220.54 394.253 220.58V218.1C393.053 218.1 391.853 218.8 391.173 219.66V218.34H388.633V228H391.173Z" fill="#242A35"/>
<rect x="313" y="249" width="120" height="5" rx="2.5" fill="#E4E3E9"/>
<rect x="323" y="264" width="100" height="5" rx="2.5" fill="#E4E3E9"/>
<path d="M372.5 169C380.508 169 387 162.508 387 154.5C387 146.492 380.508 140 372.5 140C364.492 140 358 146.492 358 154.5C358 162.508 364.492 169 372.5 169Z" fill="#E24C4B"/>
<path d="M379.116 161.116C378.572 161.659 377.665 161.659 377.122 161.116L372.5 156.494L367.878 161.116C367.334 161.659 366.428 161.659 365.884 161.116C365.341 160.572 365.341 159.666 365.884 159.122L370.506 154.5L365.884 149.878C365.341 149.334 365.341 148.428 365.884 147.884C366.428 147.341 367.334 147.341 367.878 147.884L372.5 152.506L377.122 147.884C377.665 147.341 378.572 147.341 379.116 147.884C379.659 148.428 379.659 149.334 379.116 149.878L374.494 154.5L379.116 159.122C379.659 159.666 379.659 160.572 379.116 161.116Z" fill="white"/>
<g opacity="0.2">
<path d="M445.119 122.501L447.872 119.748C448.043 119.577 448.043 119.3 447.872 119.129C447.701 118.958 447.424 118.958 447.253 119.129L444.5 121.882L441.747 119.129C441.576 118.958 441.299 118.958 441.128 119.129C440.957 119.3 440.957 119.577 441.128 119.748L443.881 122.501L441.128 125.254C440.957 125.424 440.957 125.702 441.128 125.873C441.214 125.958 441.326 126.001 441.438 126.001C441.55 126.001 441.662 125.958 441.747 125.872L444.5 123.12L447.253 125.872C447.338 125.958 447.45 126.001 447.562 126.001C447.674 126.001 447.786 125.958 447.872 125.872C448.043 125.702 448.043 125.424 447.872 125.253L445.119 122.501Z" fill="black"/>
</g>
<defs>
<filter id="filter0_ddd" x="0" y="47" width="537" height="382" filterUnits="userSpaceOnUse" color-interpolation-filters="sRGB">
<feFlood flood-opacity="0" result="BackgroundImageFix"/>
<feColorMatrix in="SourceAlpha" type="matrix" values="0 0 0 0 0 0 0 0 0 0 0 0 0 0 0 0 0 0 127 0"/>
<feOffset dy="13"/>
<feGaussianBlur stdDeviation="13.5"/>
<feColorMatrix type="matrix" values="0 0 0 0 0.196078 0 0 0 0 0.196078 0 0 0 0 0.364706 0 0 0 0.25 0"/>
<feBlend mode="normal" in2="BackgroundImageFix" result="effect1_dropShadow"/>
<feColorMatrix in="SourceAlpha" type="matrix" values="0 0 0 0 0 0 0 0 0 0 0 0 0 0 0 0 0 0 127 0"/>
<feOffset dy="8"/>
<feGaussianBlur stdDeviation="8"/>
<feColorMatrix type="matrix" values="0 0 0 0 0 0 0 0 0 0 0 0 0 0 0 0 0 0 0.03 0"/>
<feBlend mode="normal" in2="effect1_dropShadow" result="effect2_dropShadow"/>
<feColorMatrix in="SourceAlpha" type="matrix" values="0 0 0 0 0 0 0 0 0 0 0 0 0 0 0 0 0 0 127 0"/>
<feOffset dy="-6"/>
<feGaussianBlur stdDeviation="8"/>
<feColorMatrix type="matrix" values="0 0 0 0 0 0 0 0 0 0 0 0 0 0 0 0 0 0 0.05 0"/>
<feBlend mode="normal" in2="effect2_dropShadow" result="effect3_dropShadow"/>
<feBlend mode="normal" in="SourceGraphic" in2="effect3_dropShadow" result="shape"/>
</filter>
<filter id="filter1_d" x="267" y="92" width="211" height="276" filterUnits="userSpaceOnUse" color-interpolation-filters="sRGB">
<feFlood flood-opacity="0" result="BackgroundImageFix"/>
<feColorMatrix in="SourceAlpha" type="matrix" values="0 0 0 0 0 0 0 0 0 0 0 0 0 0 0 0 0 0 127 0"/>
<feOffset dy="3"/>
<feGaussianBlur stdDeviation="9"/>
<feColorMatrix type="matrix" values="0 0 0 0 0 0 0 0 0 0 0 0 0 0 0 0 0 0 0.15 0"/>
<feBlend mode="normal" in2="BackgroundImageFix" result="effect1_dropShadow"/>
<feBlend mode="normal" in="SourceGraphic" in2="effect1_dropShadow" result="shape"/>
</filter>
<linearGradient id="paint0_linear" x1="208" y1="0" x2="678.262" y2="2.25482e-08" gradientUnits="userSpaceOnUse">
<stop stop-color="#FF1C8C"/>
<stop offset="1" stop-color="#FFE6D4"/>
</linearGradient>
</defs>
</svg>
