<svg width="32" height="31" viewBox="0 0 32 31" fill="none" xmlns="http://www.w3.org/2000/svg">
<path id="Shape Copy 2" fill-rule="evenodd" clip-rule="evenodd" d="M25.1236 31V18.1728C24.9221 16.3731 23.4549 15.003 21.6889 14.9655C20.0106 15.1449 18.5761 16.2835 17.9858 17.9048V31H11.1058V10.1556H17.9823V13.0948C17.9823 13.0948 19.2498 9.62132 24.3307 9.62132C26.3015 9.44775 28.253 10.1295 29.7107 11.5009C31.1684 12.8722 31.9988 14.8075 32.0001 16.8363V31H25.1236ZM3.968 7.4789C1.86802 7.56641 0.0942001 5.89628 0 3.74288C0.0923118 1.58877 1.8656 -0.0832332 3.96622 0.00320602C6.06751 -0.0832167 7.84108 1.58987 7.93244 3.7447C7.83729 5.89664 6.06485 7.56539 3.96622 7.4789H3.968ZM7.40444 31H0.533325V10.1555H7.40977V31H7.40444Z" fill="#212225"/>
</svg>
