<svg width="39" height="32" viewBox="0 0 39 32" fill="none" xmlns="http://www.w3.org/2000/svg">
<path id="&#226;&#128;&#156; copy 2" fill-rule="evenodd" clip-rule="evenodd" d="M3.15647 9.34513C1.05215 13.121 0 17.0855 0 21.2389C0 24.5428 0.841718 27.1622 2.52518 29.0973C4.20864 31.0325 6.26617 32 8.69784 32C10.7554 32 12.509 31.2684 13.9586 29.8053C15.4083 28.3422 16.1331 26.5723 16.1331 24.4956C16.1331 22.4189 15.5018 20.6962 14.2392 19.3274C12.9766 17.9587 11.3633 17.2743 9.39928 17.2743C9.1187 17.2743 8.74461 17.3215 8.27698 17.4159H7.57554C7.76259 15.1504 8.7446 12.767 10.5216 10.2655C12.2986 7.764 14.3093 5.75812 16.554 4.24779L11.3633 0C7.99639 2.45429 5.2608 5.5693 3.15647 9.34513ZM25.6025 9.34513C23.4982 13.121 22.446 17.0855 22.446 21.2389C22.446 24.5428 23.2878 27.1622 24.9712 29.0973C26.6547 31.0325 28.7122 32 31.1439 32C33.2015 32 34.9784 31.2684 36.4748 29.8053C37.9712 28.3422 38.7194 26.5723 38.7194 24.4956C38.7194 22.4189 38.0648 20.6962 36.7554 19.3274C35.446 17.9587 33.8094 17.2743 31.8453 17.2743C31.5647 17.2743 31.1907 17.3215 30.723 17.4159H30.0216C30.3022 15.1504 31.3075 12.767 33.0378 10.2655C34.768 7.764 36.7554 5.75812 39 4.24779L33.8094 0C30.4424 2.45429 27.7068 5.5693 25.6025 9.34513Z" fill="#505AD5"/>
</svg>
