<svg width="937" height="180" viewBox="0 0 937 180" fill="none" xmlns="http://www.w3.org/2000/svg">
<path d="M72.932 28.312C78.002 28.312 81.356 24.412 81.356 19.342C81.356 14.272 78.002 10.372 72.932 10.372C67.836 10.372 64.508 14.272 64.508 19.342C64.508 24.412 67.836 28.312 72.932 28.312ZM72.932 26.96C68.72 26.96 66.068 23.71 66.068 19.342C66.068 14.922 68.72 11.724 72.932 11.724C77.092 11.724 79.796 14.922 79.796 19.342C79.796 23.71 77.092 26.96 72.932 26.96ZM94.7895 28V19.212C94.7895 16.378 93.3855 15.13 90.8375 15.13C89.0175 15.13 87.2235 16.248 86.3135 17.34V15.442H84.9615V28H86.3135V18.51C87.1195 17.366 88.7835 16.352 90.3955 16.352C92.2155 16.352 93.4375 17.08 93.4375 19.498V28H94.7895ZM99.6785 13.466C100.25 13.466 100.718 12.998 100.718 12.426C100.718 11.854 100.25 11.412 99.6785 11.412C99.1325 11.412 98.6385 11.854 98.6385 12.426C98.6385 12.998 99.1325 13.466 99.6785 13.466ZM100.354 28V15.442H99.0025V28H100.354ZM105.915 28V10.658H104.563V28H105.915ZM119.458 28V19.16C119.458 16.352 117.43 15.13 114.882 15.13C112.802 15.13 111.346 15.832 110.046 17.236L110.8 18.172C111.944 16.872 113.166 16.326 114.726 16.326C116.598 16.326 118.106 17.34 118.106 19.212V21.76C117.014 20.538 115.584 19.966 113.842 19.966C111.658 19.966 109.448 21.396 109.448 24.126C109.448 26.83 111.684 28.312 113.842 28.312C115.584 28.312 116.988 27.74 118.106 26.518V28H119.458ZM114.31 27.246C112.23 27.246 110.878 25.92 110.878 24.152C110.878 22.358 112.23 21.032 114.31 21.032C115.818 21.032 117.222 21.63 118.106 22.774V25.53C117.222 26.674 115.818 27.246 114.31 27.246ZM125.034 24.854V18.64C125.762 17.444 127.426 16.352 129.168 16.352C131.976 16.352 133.562 18.692 133.562 21.734C133.562 24.776 131.976 27.09 129.168 27.09C127.426 27.09 125.762 26.05 125.034 24.854ZM125.034 28V25.998C125.918 27.298 127.53 28.312 129.402 28.312C132.73 28.312 135.018 25.764 135.018 21.734C135.018 17.756 132.756 15.13 129.402 15.13C127.634 15.13 126.048 16.04 125.034 17.47V10.658H123.682V28H125.034ZM157.328 28L161.41 15.442H159.954L156.626 26.102L153.09 15.442H151.92L148.384 26.102L145.056 15.442H143.6L147.682 28H148.982L152.518 17.262L156.028 28H157.328ZM164.628 13.466C165.2 13.466 165.668 12.998 165.668 12.426C165.668 11.854 165.2 11.412 164.628 11.412C164.082 11.412 163.588 11.854 163.588 12.426C163.588 12.998 164.082 13.466 164.628 13.466ZM165.304 28V15.442H163.952V28H165.304ZM170.864 28V10.658H169.512V28H170.864ZM176.425 28V10.658H175.073V28H176.425ZM197.19 28V19.16C197.19 16.326 195.786 15.13 193.238 15.13C191.418 15.13 189.624 16.248 188.714 17.34V10.658H187.362V28H188.714V18.51C189.52 17.366 191.184 16.352 192.796 16.352C194.616 16.352 195.838 17.028 195.838 19.446V28H197.19ZM206.967 28.312C209.047 28.312 210.633 27.584 211.881 26.284L211.179 25.4C210.113 26.544 208.657 27.142 207.071 27.142C204.107 27.142 202.287 24.88 202.157 22.15H212.661V21.786C212.661 18.172 210.555 15.13 206.733 15.13C203.249 15.13 200.675 18.068 200.675 21.708C200.675 25.582 203.301 28.312 206.967 28.312ZM211.283 21.084H202.157C202.261 18.9 203.743 16.3 206.707 16.3C209.853 16.3 211.257 18.952 211.283 21.084ZM217.507 28V10.658H216.155V28H217.507ZM227.435 28.312C230.789 28.312 233.051 25.712 233.051 21.708C233.051 17.678 230.789 15.13 227.435 15.13C225.563 15.13 223.951 16.144 223.067 17.418V15.442H221.715V32.784H223.067V25.972C224.081 27.402 225.667 28.312 227.435 28.312ZM227.201 27.09C225.459 27.09 223.795 25.998 223.067 24.802V18.588C223.795 17.392 225.459 16.352 227.201 16.352C230.009 16.352 231.595 18.666 231.595 21.708C231.595 24.75 230.009 27.09 227.201 27.09ZM253.024 28V15.442H251.672V25.01C250.84 26.128 249.202 27.09 247.59 27.09C245.77 27.09 244.548 26.414 244.548 23.97V15.442H243.196V24.282C243.196 27.116 244.574 28.312 247.148 28.312C248.968 28.312 250.632 27.298 251.672 26.154V28H253.024ZM260.981 28.312C264.127 28.312 265.687 26.648 265.687 24.62C265.687 19.784 257.757 21.708 257.757 18.562C257.757 17.262 258.953 16.274 260.903 16.274C262.567 16.274 263.919 16.95 264.647 17.938L265.401 16.976C264.491 15.962 263.061 15.13 260.903 15.13C258.069 15.13 256.431 16.69 256.431 18.614C256.431 23.112 264.361 21.188 264.361 24.62C264.361 26.076 263.113 27.168 261.007 27.168C259.239 27.168 257.757 26.336 256.951 25.322L256.145 26.336C257.393 27.714 258.953 28.312 260.981 28.312ZM278.629 28.312C279.669 28.312 280.267 28 280.761 27.532L280.241 26.492C279.955 26.804 279.435 27.09 278.837 27.09C277.953 27.09 277.537 26.388 277.537 25.374V16.638H280.085V15.442H277.537V12.01H276.159V15.442H274.079V16.638H276.159V25.582C276.159 27.298 276.965 28.312 278.629 28.312ZM292.887 28V19.16C292.887 16.326 291.483 15.13 288.935 15.13C287.115 15.13 285.321 16.248 284.411 17.34V10.658H283.059V28H284.411V18.51C285.217 17.366 286.881 16.352 288.493 16.352C290.313 16.352 291.535 17.028 291.535 19.446V28H292.887ZM297.776 13.466C298.348 13.466 298.816 12.998 298.816 12.426C298.816 11.854 298.348 11.412 297.776 11.412C297.23 11.412 296.736 11.854 296.736 12.426C296.736 12.998 297.23 13.466 297.776 13.466ZM298.452 28V15.442H297.1V28H298.452ZM312.489 28V19.212C312.489 16.378 311.085 15.13 308.537 15.13C306.717 15.13 304.923 16.248 304.013 17.34V15.442H302.661V28H304.013V18.51C304.819 17.366 306.483 16.352 308.095 16.352C309.915 16.352 311.137 17.08 311.137 19.498V28H312.489ZM327.232 28L321.408 21.11L327.258 15.442H325.464L318.054 22.618V10.658H316.702V28H318.054V24.23L320.394 22.02L325.412 28H327.232ZM339.287 28.312C340.327 28.312 340.925 28 341.419 27.532L340.899 26.492C340.613 26.804 340.093 27.09 339.495 27.09C338.611 27.09 338.195 26.388 338.195 25.374V16.638H340.743V15.442H338.195V12.01H336.817V15.442H334.737V16.638H336.817V25.582C336.817 27.298 337.623 28.312 339.287 28.312ZM353.545 28V19.16C353.545 16.326 352.141 15.13 349.593 15.13C347.773 15.13 345.979 16.248 345.069 17.34V10.658H343.717V28H345.069V18.51C345.875 17.366 347.539 16.352 349.151 16.352C350.971 16.352 352.193 17.028 352.193 19.446V28H353.545ZM359.11 28V18.848C359.682 17.756 361.398 16.612 362.672 16.612C362.932 16.612 363.114 16.612 363.348 16.664V15.182C361.606 15.182 360.176 16.196 359.11 17.6V15.442H357.758V28H359.11ZM371.314 28.312C375.032 28.312 377.372 25.374 377.372 21.708C377.372 18.042 375.032 15.13 371.314 15.13C367.648 15.13 365.282 18.042 365.282 21.708C365.282 25.374 367.648 28.312 371.314 28.312ZM371.314 27.09C368.402 27.09 366.738 24.516 366.738 21.708C366.738 18.926 368.402 16.352 371.314 16.352C374.278 16.352 375.916 18.926 375.916 21.708C375.916 24.516 374.278 27.09 371.314 27.09ZM390.692 28V15.442H389.34V25.01C388.508 26.128 386.87 27.09 385.258 27.09C383.438 27.09 382.216 26.414 382.216 23.97V15.442H380.864V24.282C380.864 27.116 382.242 28.312 384.816 28.312C386.636 28.312 388.3 27.298 389.34 26.154V28H390.692ZM399.871 33.096C402.939 33.096 405.539 31.718 405.539 27.87V15.442H404.161V17.47C403.147 16.04 401.587 15.13 399.793 15.13C396.465 15.13 394.177 17.73 394.177 21.708C394.177 25.738 396.465 28.26 399.793 28.26C401.665 28.26 403.277 27.194 404.161 25.92V27.896C404.161 30.782 402.159 31.926 399.871 31.926C397.999 31.926 396.803 31.458 395.711 30.158L394.931 31.198C396.413 32.706 397.765 33.096 399.871 33.096ZM400.027 27.038C397.245 27.038 395.633 24.75 395.633 21.708C395.633 18.666 397.245 16.352 400.027 16.352C401.769 16.352 403.433 17.418 404.161 18.64V24.75C403.433 25.972 401.769 27.038 400.027 27.038ZM419.561 28V19.16C419.561 16.326 418.157 15.13 415.609 15.13C413.789 15.13 411.995 16.248 411.085 17.34V10.658H409.733V28H411.085V18.51C411.891 17.366 413.555 16.352 415.167 16.352C416.987 16.352 418.209 17.028 418.209 19.446V28H419.561ZM441.136 28V10.658H439.758V17.47C438.744 16.04 437.184 15.13 435.39 15.13C432.062 15.13 429.774 17.756 429.774 21.734C429.774 25.764 432.062 28.312 435.39 28.312C437.262 28.312 438.874 27.298 439.758 25.998V28H441.136ZM435.624 27.09C432.842 27.09 431.23 24.776 431.23 21.734C431.23 18.692 432.842 16.352 435.624 16.352C437.392 16.352 439.03 17.418 439.758 18.64V24.854C439.03 26.05 437.392 27.09 435.624 27.09ZM450.92 28.312C453 28.312 454.586 27.584 455.834 26.284L455.132 25.4C454.066 26.544 452.61 27.142 451.024 27.142C448.06 27.142 446.24 24.88 446.11 22.15H456.614V21.786C456.614 18.172 454.508 15.13 450.686 15.13C447.202 15.13 444.628 18.068 444.628 21.708C444.628 25.582 447.254 28.312 450.92 28.312ZM455.236 21.084H446.11C446.214 18.9 447.696 16.3 450.66 16.3C453.806 16.3 455.21 18.952 455.236 21.084ZM465.49 28.312C467.674 28.312 468.922 27.454 469.936 26.154L469 25.322C468.09 26.57 466.946 27.09 465.568 27.09C462.63 27.09 460.836 24.724 460.836 21.708C460.836 18.692 462.63 16.352 465.568 16.352C466.946 16.352 468.09 16.846 469 18.094L469.936 17.262C468.922 15.988 467.674 15.13 465.49 15.13C461.798 15.13 459.38 18.042 459.38 21.708C459.38 25.374 461.798 28.312 465.49 28.312ZM473.632 13.466C474.204 13.466 474.672 12.998 474.672 12.426C474.672 11.854 474.204 11.412 473.632 11.412C473.086 11.412 472.592 11.854 472.592 12.426C472.592 12.998 473.086 13.466 473.632 13.466ZM474.308 28V15.442H472.956V28H474.308ZM482.26 28.312C485.406 28.312 486.966 26.648 486.966 24.62C486.966 19.784 479.036 21.708 479.036 18.562C479.036 17.262 480.232 16.274 482.182 16.274C483.846 16.274 485.198 16.95 485.926 17.938L486.68 16.976C485.77 15.962 484.34 15.13 482.182 15.13C479.348 15.13 477.71 16.69 477.71 18.614C477.71 23.112 485.64 21.188 485.64 24.62C485.64 26.076 484.392 27.168 482.286 27.168C480.518 27.168 479.036 26.336 478.23 25.322L477.424 26.336C478.672 27.714 480.232 28.312 482.26 28.312ZM491.126 13.466C491.698 13.466 492.166 12.998 492.166 12.426C492.166 11.854 491.698 11.412 491.126 11.412C490.58 11.412 490.086 11.854 490.086 12.426C490.086 12.998 490.58 13.466 491.126 13.466ZM491.802 28V15.442H490.45V28H491.802ZM501.314 28.312C505.032 28.312 507.372 25.374 507.372 21.708C507.372 18.042 505.032 15.13 501.314 15.13C497.648 15.13 495.282 18.042 495.282 21.708C495.282 25.374 497.648 28.312 501.314 28.312ZM501.314 27.09C498.402 27.09 496.738 24.516 496.738 21.708C496.738 18.926 498.402 16.352 501.314 16.352C504.278 16.352 505.916 18.926 505.916 21.708C505.916 24.516 504.278 27.09 501.314 27.09ZM520.692 28V19.212C520.692 16.378 519.288 15.13 516.74 15.13C514.92 15.13 513.126 16.248 512.216 17.34V15.442H510.864V28H512.216V18.51C513.022 17.366 514.686 16.352 516.298 16.352C518.118 16.352 519.34 17.08 519.34 19.498V28H520.692ZM528.649 28.312C531.795 28.312 533.355 26.648 533.355 24.62C533.355 19.784 525.425 21.708 525.425 18.562C525.425 17.262 526.621 16.274 528.571 16.274C530.235 16.274 531.587 16.95 532.315 17.938L533.069 16.976C532.159 15.962 530.729 15.13 528.571 15.13C525.737 15.13 524.099 16.69 524.099 18.614C524.099 23.112 532.029 21.188 532.029 24.62C532.029 26.076 530.781 27.168 528.675 27.168C526.907 27.168 525.425 26.336 524.619 25.322L523.813 26.336C525.061 27.714 526.621 28.312 528.649 28.312ZM555.631 28L559.713 15.442H558.257L554.929 26.102L551.393 15.442H550.223L546.687 26.102L543.359 15.442H541.903L545.985 28H547.285L550.821 17.262L554.331 28H555.631ZM562.93 13.466C563.502 13.466 563.97 12.998 563.97 12.426C563.97 11.854 563.502 11.412 562.93 11.412C562.384 11.412 561.89 11.854 561.89 12.426C561.89 12.998 562.384 13.466 562.93 13.466ZM563.606 28V15.442H562.254V28H563.606ZM570.545 28.312C571.585 28.312 572.183 28 572.677 27.532L572.157 26.492C571.871 26.804 571.351 27.09 570.753 27.09C569.869 27.09 569.453 26.388 569.453 25.374V16.638H572.001V15.442H569.453V12.01H568.075V15.442H565.995V16.638H568.075V25.582C568.075 27.298 568.881 28.312 570.545 28.312ZM584.803 28V19.16C584.803 16.326 583.399 15.13 580.851 15.13C579.031 15.13 577.237 16.248 576.327 17.34V10.658H574.975V28H576.327V18.51C577.133 17.366 578.797 16.352 580.409 16.352C582.229 16.352 583.451 17.028 583.451 19.446V28H584.803ZM598.475 28.312C599.515 28.312 600.113 28 600.607 27.532L600.087 26.492C599.801 26.804 599.281 27.09 598.683 27.09C597.799 27.09 597.383 26.388 597.383 25.374V16.638H599.931V15.442H597.383V12.01H596.005V15.442H593.925V16.638H596.005V25.582C596.005 27.298 596.811 28.312 598.475 28.312ZM612.733 28V19.16C612.733 16.326 611.329 15.13 608.781 15.13C606.961 15.13 605.167 16.248 604.257 17.34V10.658H602.905V28H604.257V18.51C605.063 17.366 606.727 16.352 608.339 16.352C610.159 16.352 611.381 17.028 611.381 19.446V28H612.733ZM622.51 28.312C624.59 28.312 626.176 27.584 627.424 26.284L626.722 25.4C625.656 26.544 624.2 27.142 622.614 27.142C619.65 27.142 617.83 24.88 617.7 22.15H628.204V21.786C628.204 18.172 626.098 15.13 622.276 15.13C618.792 15.13 616.218 18.068 616.218 21.708C616.218 25.582 618.844 28.312 622.51 28.312ZM626.826 21.084H617.7C617.804 18.9 619.286 16.3 622.25 16.3C625.396 16.3 626.8 18.952 626.826 21.084ZM640.22 28V16.638H642.768V15.442H640.22V14.298C640.22 12.556 640.974 11.568 642.404 11.568C643.08 11.568 643.6 11.828 644.016 12.218L644.666 11.282C643.86 10.58 643.158 10.398 642.274 10.398C640.168 10.398 638.868 11.854 638.868 14.298V15.442H636.788V16.638H638.868V28H640.22ZM655.135 28V15.442H653.783V25.01C652.951 26.128 651.313 27.09 649.701 27.09C647.881 27.09 646.659 26.414 646.659 23.97V15.442H645.307V24.282C645.307 27.116 646.685 28.312 649.259 28.312C651.079 28.312 652.743 27.298 653.783 26.154V28H655.135ZM662.078 28.312C663.118 28.312 663.716 28 664.21 27.532L663.69 26.492C663.404 26.804 662.884 27.09 662.286 27.09C661.402 27.09 660.986 26.388 660.986 25.374V16.638H663.534V15.442H660.986V12.01H659.608V15.442H657.528V16.638H659.608V25.582C659.608 27.298 660.414 28.312 662.078 28.312ZM676.336 28V15.442H674.984V25.01C674.152 26.128 672.514 27.09 670.902 27.09C669.082 27.09 667.86 26.414 667.86 23.97V15.442H666.508V24.282C666.508 27.116 667.886 28.312 670.46 28.312C672.28 28.312 673.944 27.298 674.984 26.154V28H676.336ZM681.901 28V18.848C682.473 17.756 684.189 16.612 685.463 16.612C685.723 16.612 685.905 16.612 686.139 16.664V15.182C684.397 15.182 682.967 16.196 681.901 17.6V15.442H680.549V28H681.901ZM694.365 28.312C696.445 28.312 698.031 27.584 699.279 26.284L698.577 25.4C697.511 26.544 696.055 27.142 694.469 27.142C691.505 27.142 689.685 24.88 689.555 22.15H700.059V21.786C700.059 18.172 697.953 15.13 694.131 15.13C690.647 15.13 688.073 18.068 688.073 21.708C688.073 25.582 690.699 28.312 694.365 28.312ZM698.681 21.084H689.555C689.659 18.9 691.141 16.3 694.105 16.3C697.251 16.3 698.655 18.952 698.681 21.084ZM710.958 13.466C711.53 13.466 711.998 12.998 711.998 12.426C711.998 11.854 711.53 11.412 710.958 11.412C710.412 11.412 709.918 11.854 709.918 12.426C709.918 12.998 710.412 13.466 710.958 13.466ZM711.634 28V15.442H710.282V28H711.634ZM725.67 28V19.212C725.67 16.378 724.266 15.13 721.718 15.13C719.898 15.13 718.104 16.248 717.194 17.34V15.442H715.842V28H717.194V18.51C718 17.366 719.664 16.352 721.276 16.352C723.096 16.352 724.318 17.08 724.318 19.498V28H725.67ZM752.914 28V18.952C752.914 16.43 751.796 15.13 749.482 15.13C747.714 15.13 746.024 16.326 745.322 17.496C745.01 16.274 743.97 15.13 742.02 15.13C740.2 15.13 738.484 16.534 737.964 17.34V15.442H736.612V28H737.964V18.51C738.718 17.366 740.226 16.352 741.552 16.352C743.346 16.352 744.074 17.444 744.074 19.212V28H745.452V18.484C746.154 17.34 747.688 16.352 749.04 16.352C750.808 16.352 751.562 17.444 751.562 19.212V28H752.914ZM757.803 13.466C758.375 13.466 758.843 12.998 758.843 12.426C758.843 11.854 758.375 11.412 757.803 11.412C757.257 11.412 756.763 11.854 756.763 12.426C756.763 12.998 757.257 13.466 757.803 13.466ZM758.479 28V15.442H757.127V28H758.479ZM772.516 28V19.212C772.516 16.378 771.112 15.13 768.564 15.13C766.744 15.13 764.95 16.248 764.04 17.34V15.442H762.688V28H764.04V18.51C764.846 17.366 766.51 16.352 768.122 16.352C769.942 16.352 771.164 17.08 771.164 19.498V28H772.516ZM787.363 28V10.658H785.985V17.47C784.971 16.04 783.411 15.13 781.617 15.13C778.289 15.13 776.001 17.756 776.001 21.734C776.001 25.764 778.289 28.312 781.617 28.312C783.489 28.312 785.101 27.298 785.985 25.998V28H787.363ZM781.851 27.09C779.069 27.09 777.457 24.776 777.457 21.734C777.457 18.692 779.069 16.352 781.851 16.352C783.619 16.352 785.257 17.418 785.985 18.64V24.854C785.257 26.05 783.619 27.09 781.851 27.09ZM792.311 28.26C792.935 28.26 793.481 27.714 793.481 27.09C793.481 26.492 792.935 25.972 792.311 25.972C791.687 25.972 791.167 26.492 791.167 27.09C791.167 27.714 791.687 28.26 792.311 28.26ZM797.998 28.26C798.622 28.26 799.168 27.714 799.168 27.09C799.168 26.492 798.622 25.972 797.998 25.972C797.374 25.972 796.854 26.492 796.854 27.09C796.854 27.714 797.374 28.26 797.998 28.26ZM803.686 28.26C804.31 28.26 804.856 27.714 804.856 27.09C804.856 26.492 804.31 25.972 803.686 25.972C803.062 25.972 802.542 26.492 802.542 27.09C802.542 27.714 803.062 28.26 803.686 28.26ZM809.373 28.26C809.997 28.26 810.543 27.714 810.543 27.09C810.543 26.492 809.997 25.972 809.373 25.972C808.749 25.972 808.229 26.492 808.229 27.09C808.229 27.714 808.749 28.26 809.373 28.26ZM817.926 28V12.01H823.594V10.658H810.75V12.01H816.418V28H817.926ZM836.45 28V19.16C836.45 16.326 835.046 15.13 832.498 15.13C830.678 15.13 828.884 16.248 827.974 17.34V10.658H826.622V28H827.974V18.51C828.78 17.366 830.444 16.352 832.056 16.352C833.876 16.352 835.098 17.028 835.098 19.446V28H836.45ZM846.227 28.312C848.307 28.312 849.893 27.584 851.141 26.284L850.439 25.4C849.373 26.544 847.917 27.142 846.331 27.142C843.367 27.142 841.547 24.88 841.417 22.15H851.921V21.786C851.921 18.172 849.815 15.13 845.993 15.13C842.509 15.13 839.935 18.068 839.935 21.708C839.935 25.582 842.561 28.312 846.227 28.312ZM850.543 21.084H841.417C841.521 18.9 843.003 16.3 845.967 16.3C849.113 16.3 850.517 18.952 850.543 21.084ZM856.767 28V18.848C857.339 17.756 859.055 16.612 860.329 16.612C860.589 16.612 860.771 16.612 861.005 16.664V15.182C859.263 15.182 857.833 16.196 856.767 17.6V15.442H855.415V28H856.767ZM869.231 28.312C871.311 28.312 872.897 27.584 874.145 26.284L873.443 25.4C872.377 26.544 870.921 27.142 869.335 27.142C866.371 27.142 864.551 24.88 864.421 22.15H874.925V21.786C874.925 18.172 872.819 15.13 868.997 15.13C865.513 15.13 862.939 18.068 862.939 21.708C862.939 25.582 865.565 28.312 869.231 28.312ZM873.547 21.084H864.421C864.525 18.9 866.007 16.3 868.971 16.3C872.117 16.3 873.521 18.952 873.547 21.084ZM879.096 16.898C879.096 16.898 879.642 11.672 879.642 11.334C879.642 10.814 879.226 10.398 878.706 10.398C878.16 10.398 877.77 10.814 877.77 11.334C877.77 11.672 878.316 16.898 878.316 16.898H879.096ZM886.174 28.312C889.32 28.312 890.88 26.648 890.88 24.62C890.88 19.784 882.95 21.708 882.95 18.562C882.95 17.262 884.146 16.274 886.096 16.274C887.76 16.274 889.112 16.95 889.84 17.938L890.594 16.976C889.684 15.962 888.254 15.13 886.096 15.13C883.262 15.13 881.624 16.69 881.624 18.614C881.624 23.112 889.554 21.188 889.554 24.62C889.554 26.076 888.306 27.168 886.2 27.168C884.432 27.168 882.95 26.336 882.144 25.322L881.338 26.336C882.586 27.714 884.146 28.312 886.174 28.312ZM81.408 68V58.952C81.408 56.43 80.29 55.13 77.976 55.13C76.208 55.13 74.518 56.326 73.816 57.496C73.504 56.274 72.464 55.13 70.514 55.13C68.694 55.13 66.978 56.534 66.458 57.34V55.442H65.106V68H66.458V58.51C67.212 57.366 68.72 56.352 70.046 56.352C71.84 56.352 72.568 57.444 72.568 59.212V68H73.946V58.484C74.648 57.34 76.182 56.352 77.534 56.352C79.302 56.352 80.056 57.444 80.056 59.212V68H81.408ZM95.4496 68V55.442H94.0976V65.01C93.2656 66.128 91.6276 67.09 90.0156 67.09C88.1956 67.09 86.9736 66.414 86.9736 63.97V55.442H85.6216V64.282C85.6216 67.116 86.9996 68.312 89.5736 68.312C91.3936 68.312 93.0576 67.298 94.0976 66.154V68H95.4496ZM105.045 68.312C107.229 68.312 108.477 67.454 109.491 66.154L108.555 65.322C107.645 66.57 106.501 67.09 105.123 67.09C102.185 67.09 100.391 64.724 100.391 61.708C100.391 58.692 102.185 56.352 105.123 56.352C106.501 56.352 107.645 56.846 108.555 58.094L109.491 57.262C108.477 55.988 107.229 55.13 105.045 55.13C101.353 55.13 98.9346 58.042 98.9346 61.708C98.9346 65.374 101.353 68.312 105.045 68.312ZM122.338 68V59.16C122.338 56.326 120.934 55.13 118.386 55.13C116.566 55.13 114.772 56.248 113.862 57.34V50.658H112.51V68H113.862V58.51C114.668 57.366 116.332 56.352 117.944 56.352C119.764 56.352 120.986 57.028 120.986 59.446V68H122.338ZM149.582 68V58.952C149.582 56.43 148.464 55.13 146.15 55.13C144.382 55.13 142.692 56.326 141.99 57.496C141.678 56.274 140.638 55.13 138.688 55.13C136.868 55.13 135.152 56.534 134.632 57.34V55.442H133.28V68H134.632V58.51C135.386 57.366 136.894 56.352 138.22 56.352C140.014 56.352 140.742 57.444 140.742 59.212V68H142.12V58.484C142.822 57.34 144.356 56.352 145.708 56.352C147.476 56.352 148.23 57.444 148.23 59.212V68H149.582ZM159.099 68.312C162.817 68.312 165.157 65.374 165.157 61.708C165.157 58.042 162.817 55.13 159.099 55.13C155.433 55.13 153.067 58.042 153.067 61.708C153.067 65.374 155.433 68.312 159.099 68.312ZM159.099 67.09C156.187 67.09 154.523 64.516 154.523 61.708C154.523 58.926 156.187 56.352 159.099 56.352C162.063 56.352 163.701 58.926 163.701 61.708C163.701 64.516 162.063 67.09 159.099 67.09ZM170.001 68V58.848C170.573 57.756 172.289 56.612 173.563 56.612C173.823 56.612 174.005 56.612 174.239 56.664V55.182C172.497 55.182 171.067 56.196 170.001 57.6V55.442H168.649V68H170.001ZM182.465 68.312C184.545 68.312 186.131 67.584 187.379 66.284L186.677 65.4C185.611 66.544 184.155 67.142 182.569 67.142C179.605 67.142 177.785 64.88 177.655 62.15H188.159V61.786C188.159 58.172 186.053 55.13 182.231 55.13C178.747 55.13 176.173 58.068 176.173 61.708C176.173 65.582 178.799 68.312 182.465 68.312ZM186.781 61.084H177.655C177.759 58.9 179.241 56.3 182.205 56.3C185.351 56.3 186.755 58.952 186.781 61.084ZM203.685 68.312C207.403 68.312 209.743 65.374 209.743 61.708C209.743 58.042 207.403 55.13 203.685 55.13C200.019 55.13 197.653 58.042 197.653 61.708C197.653 65.374 200.019 68.312 203.685 68.312ZM203.685 67.09C200.773 67.09 199.109 64.516 199.109 61.708C199.109 58.926 200.773 56.352 203.685 56.352C206.649 56.352 208.287 58.926 208.287 61.708C208.287 64.516 206.649 67.09 203.685 67.09ZM215.029 68V56.638H217.577V55.442H215.029V54.298C215.029 52.556 215.783 51.568 217.213 51.568C217.889 51.568 218.409 51.828 218.825 52.218L219.475 51.282C218.669 50.58 217.967 50.398 217.083 50.398C214.977 50.398 213.677 51.854 213.677 54.298V55.442H211.597V56.638H213.677V68H215.029ZM236.178 68V59.16C236.178 56.352 234.15 55.13 231.602 55.13C229.522 55.13 228.066 55.832 226.766 57.236L227.52 58.172C228.664 56.872 229.886 56.326 231.446 56.326C233.318 56.326 234.826 57.34 234.826 59.212V61.76C233.734 60.538 232.304 59.966 230.562 59.966C228.378 59.966 226.168 61.396 226.168 64.126C226.168 66.83 228.404 68.312 230.562 68.312C232.304 68.312 233.708 67.74 234.826 66.518V68H236.178ZM231.03 67.246C228.95 67.246 227.598 65.92 227.598 64.152C227.598 62.358 228.95 61.032 231.03 61.032C232.538 61.032 233.942 61.63 234.826 62.774V65.53C233.942 66.674 232.538 67.246 231.03 67.246ZM249.861 68.312C250.901 68.312 251.499 68 251.993 67.532L251.473 66.492C251.187 66.804 250.667 67.09 250.069 67.09C249.185 67.09 248.769 66.388 248.769 65.374V56.638H251.317V55.442H248.769V52.01H247.391V55.442H245.311V56.638H247.391V65.582C247.391 67.298 248.197 68.312 249.861 68.312ZM259.856 68.312C261.936 68.312 263.522 67.584 264.77 66.284L264.068 65.4C263.002 66.544 261.546 67.142 259.96 67.142C256.996 67.142 255.176 64.88 255.046 62.15H265.55V61.786C265.55 58.172 263.444 55.13 259.622 55.13C256.138 55.13 253.564 58.068 253.564 61.708C253.564 65.582 256.19 68.312 259.856 68.312ZM264.172 61.084H255.046C255.15 58.9 256.632 56.3 259.596 56.3C262.742 56.3 264.146 58.952 264.172 61.084ZM278.378 68V59.16C278.378 56.352 276.35 55.13 273.801 55.13C271.722 55.13 270.266 55.832 268.966 57.236L269.72 58.172C270.864 56.872 272.086 56.326 273.646 56.326C275.518 56.326 277.026 57.34 277.026 59.212V61.76C275.934 60.538 274.504 59.966 272.762 59.966C270.578 59.966 268.368 61.396 268.368 64.126C268.368 66.83 270.604 68.312 272.762 68.312C274.504 68.312 275.908 67.74 277.026 66.518V68H278.378ZM273.23 67.246C271.15 67.246 269.798 65.92 269.798 64.152C269.798 62.358 271.15 61.032 273.23 61.032C274.738 61.032 276.142 61.63 277.026 62.774V65.53C276.142 66.674 274.738 67.246 273.23 67.246ZM298.904 68V58.952C298.904 56.43 297.786 55.13 295.472 55.13C293.704 55.13 292.014 56.326 291.312 57.496C291 56.274 289.96 55.13 288.01 55.13C286.19 55.13 284.474 56.534 283.954 57.34V55.442H282.602V68H283.954V58.51C284.708 57.366 286.216 56.352 287.542 56.352C289.336 56.352 290.064 57.444 290.064 59.212V68H291.442V58.484C292.144 57.34 293.678 56.352 295.03 56.352C296.798 56.352 297.552 57.444 297.552 59.212V68H298.904ZM311.64 68V56.638H314.188V55.442H311.64V54.298C311.64 52.556 312.394 51.568 313.824 51.568C314.5 51.568 315.02 51.828 315.436 52.218L316.086 51.282C315.28 50.58 314.578 50.398 313.694 50.398C311.588 50.398 310.288 51.854 310.288 54.298V55.442H308.208V56.638H310.288V68H311.64ZM322.291 68.312C324.371 68.312 325.957 67.584 327.205 66.284L326.503 65.4C325.437 66.544 323.981 67.142 322.395 67.142C319.431 67.142 317.611 64.88 317.481 62.15H327.985V61.786C327.985 58.172 325.879 55.13 322.057 55.13C318.573 55.13 315.999 58.068 315.999 61.708C315.999 65.582 318.625 68.312 322.291 68.312ZM326.607 61.084H317.481C317.585 58.9 319.067 56.3 322.031 56.3C325.177 56.3 326.581 58.952 326.607 61.084ZM337.043 68.312C339.123 68.312 340.709 67.584 341.957 66.284L341.255 65.4C340.189 66.544 338.733 67.142 337.147 67.142C334.183 67.142 332.363 64.88 332.233 62.15H342.737V61.786C342.737 58.172 340.631 55.13 336.809 55.13C333.325 55.13 330.751 58.068 330.751 61.708C330.751 65.582 333.377 68.312 337.043 68.312ZM341.359 61.084H332.233C332.337 58.9 333.819 56.3 336.783 56.3C339.929 56.3 341.333 58.952 341.359 61.084ZM347.583 68V50.658H346.231V68H347.583ZM352.468 53.466C353.04 53.466 353.508 52.998 353.508 52.426C353.508 51.854 353.04 51.412 352.468 51.412C351.922 51.412 351.428 51.854 351.428 52.426C351.428 52.998 351.922 53.466 352.468 53.466ZM353.144 68V55.442H351.792V68H353.144ZM367.18 68V59.212C367.18 56.378 365.776 55.13 363.228 55.13C361.408 55.13 359.614 56.248 358.704 57.34V55.442H357.352V68H358.704V58.51C359.51 57.366 361.174 56.352 362.786 56.352C364.606 56.352 365.828 57.08 365.828 59.498V68H367.18ZM376.359 73.096C379.427 73.096 382.027 71.718 382.027 67.87V55.442H380.649V57.47C379.635 56.04 378.075 55.13 376.281 55.13C372.953 55.13 370.665 57.73 370.665 61.708C370.665 65.738 372.953 68.26 376.281 68.26C378.153 68.26 379.765 67.194 380.649 65.92V67.896C380.649 70.782 378.647 71.926 376.359 71.926C374.487 71.926 373.291 71.458 372.199 70.158L371.419 71.198C372.901 72.706 374.253 73.096 376.359 73.096ZM376.515 67.038C373.733 67.038 372.121 64.75 372.121 61.708C372.121 58.666 373.733 56.352 376.515 56.352C378.257 56.352 379.921 57.418 380.649 58.64V64.75C379.921 65.972 378.257 67.038 376.515 67.038ZM386.949 68.26C387.573 68.26 388.119 67.714 388.119 67.09C388.119 66.492 387.573 65.972 386.949 65.972C386.325 65.972 385.805 66.492 385.805 67.09C385.805 67.714 386.325 68.26 386.949 68.26Z" fill="#242A35"/>
<path d="M80.888 132L74.206 114.658H69.578L62.87 132H67.082L68.174 129.062H75.61L76.676 132H80.888ZM74.596 125.812H69.188L71.892 118.35L74.596 125.812ZM85.7134 132V114.658H82.4114V132H85.7134ZM92.2896 132V114.658H88.9876V132H92.2896ZM97.2018 118.09C98.2938 118.09 99.1778 117.206 99.1778 116.114C99.1778 115.022 98.2938 114.164 97.2018 114.164C96.1358 114.164 95.2258 115.022 95.2258 116.114C95.2258 117.206 96.1358 118.09 97.2018 118.09ZM98.8658 132V119.442H95.5638V132H98.8658ZM106.664 132.312C110.148 132.312 112.098 130.57 112.098 128.282C112.098 123.212 104.662 124.772 104.662 122.9C104.662 122.198 105.442 121.652 106.638 121.652C108.172 121.652 109.602 122.302 110.356 123.108L111.682 120.846C110.434 119.858 108.744 119.13 106.612 119.13C103.31 119.13 101.464 120.976 101.464 123.082C101.464 128.022 108.926 126.332 108.926 128.412C108.926 129.192 108.25 129.764 106.82 129.764C105.26 129.764 103.388 128.906 102.478 128.048L101.048 130.362C102.374 131.584 104.48 132.312 106.664 132.312ZM120.355 132.312C124.515 132.312 127.011 129.296 127.011 125.708C127.011 122.146 124.515 119.13 120.355 119.13C116.221 119.13 113.725 122.146 113.725 125.708C113.725 129.296 116.221 132.312 120.355 132.312ZM120.355 129.374C118.301 129.374 117.157 127.684 117.157 125.708C117.157 123.758 118.301 122.068 120.355 122.068C122.409 122.068 123.579 123.758 123.579 125.708C123.579 127.684 122.409 129.374 120.355 129.374ZM141.238 132V123.134C141.238 120.69 139.912 119.13 137.156 119.13C135.102 119.13 133.568 120.118 132.762 121.08V119.442H129.46V132H132.762V123.55C133.308 122.796 134.322 122.068 135.622 122.068C137.026 122.068 137.936 122.666 137.936 124.408V132H141.238ZM158.085 132C163.519 132 167.289 128.568 167.289 123.342C167.289 118.116 163.519 114.658 158.085 114.658H151.247V132H158.085ZM158.085 128.75H154.939V117.908H158.085C161.647 117.908 163.519 120.274 163.519 123.342C163.519 126.28 161.517 128.75 158.085 128.75ZM175.655 132.312C179.815 132.312 182.311 129.296 182.311 125.708C182.311 122.146 179.815 119.13 175.655 119.13C171.521 119.13 169.025 122.146 169.025 125.708C169.025 129.296 171.521 132.312 175.655 132.312ZM175.655 129.374C173.601 129.374 172.457 127.684 172.457 125.708C172.457 123.758 173.601 122.068 175.655 122.068C177.709 122.068 178.879 123.758 178.879 125.708C178.879 127.684 177.709 129.374 175.655 129.374ZM188.063 132V123.706C188.609 122.9 190.065 122.276 191.157 122.276C191.521 122.276 191.833 122.302 192.067 122.354V119.13C190.507 119.13 188.947 120.04 188.063 121.158V119.442H184.761V132H188.063ZM198.654 132.312C202.138 132.312 204.088 130.57 204.088 128.282C204.088 123.212 196.652 124.772 196.652 122.9C196.652 122.198 197.432 121.652 198.628 121.652C200.162 121.652 201.592 122.302 202.346 123.108L203.672 120.846C202.424 119.858 200.734 119.13 198.602 119.13C195.3 119.13 193.454 120.976 193.454 123.082C193.454 128.022 200.916 126.332 200.916 128.412C200.916 129.192 200.24 129.764 198.81 129.764C197.25 129.764 195.378 128.906 194.468 128.048L193.038 130.362C194.364 131.584 196.47 132.312 198.654 132.312ZM210.733 132.312C212.111 132.312 212.995 131.948 213.489 131.506L212.787 129.01C212.605 129.192 212.137 129.374 211.643 129.374C210.915 129.374 210.499 128.776 210.499 127.996V122.328H213.047V119.442H210.499V116.01H207.171V119.442H205.091V122.328H207.171V128.88C207.171 131.116 208.419 132.312 210.733 132.312Z" fill="#242A35"/>
<path d="M917 164C919.761 164 922 166.239 922 169C922 171.761 919.761 174 917 174H863C860.239 174 858 171.761 858 169C858 166.239 860.239 164 863 164H917Z" fill="#505AD5"/>
<path fill-rule="evenodd" clip-rule="evenodd" d="M899.124 148V135.173C898.922 133.373 897.455 132.003 895.689 131.966C894.011 132.145 892.576 133.283 891.986 134.905V148H885.106V127.156H891.982V130.095C891.982 130.095 893.25 126.621 898.331 126.621C900.302 126.448 902.253 127.13 903.711 128.501C905.168 129.872 905.999 131.808 906 133.836V148H899.124ZM877.968 124.479C875.868 124.566 874.094 122.896 874 120.743C874.092 118.589 875.866 116.917 877.966 117.003C880.068 116.917 881.841 118.59 881.932 120.745C881.837 122.897 880.065 124.565 877.966 124.479H877.968ZM881.404 148H874.533V127.156H881.41V148H881.404Z" fill="#212225"/>
<path d="M65.8 172V165.68H72.98V164.64H65.8V159.7H73.12V158.66H64.66V172H65.8ZM79.5398 172.24C82.3998 172.24 84.1998 169.98 84.1998 167.16C84.1998 164.34 82.3998 162.1 79.5398 162.1C76.7198 162.1 74.8998 164.34 74.8998 167.16C74.8998 169.98 76.7198 172.24 79.5398 172.24ZM79.5398 171.3C77.2998 171.3 76.0198 169.32 76.0198 167.16C76.0198 165.02 77.2998 163.04 79.5398 163.04C81.8198 163.04 83.0798 165.02 83.0798 167.16C83.0798 169.32 81.8198 171.3 79.5398 171.3ZM94.4456 172V162.34H93.4056V169.7C92.7656 170.56 91.5056 171.3 90.2656 171.3C88.8656 171.3 87.9256 170.78 87.9256 168.9V162.34H86.8856V169.14C86.8856 171.32 87.9456 172.24 89.9256 172.24C91.3256 172.24 92.6056 171.46 93.4056 170.58V172H94.4456ZM105.246 172V165.24C105.246 163.06 104.166 162.1 102.206 162.1C100.806 162.1 99.4264 162.96 98.7264 163.8V162.34H97.6864V172H98.7264V164.7C99.3464 163.82 100.626 163.04 101.866 163.04C103.266 163.04 104.206 163.6 104.206 165.46V172H105.246ZM116.667 172V158.66H115.607V163.9C114.827 162.8 113.627 162.1 112.247 162.1C109.687 162.1 107.927 164.12 107.927 167.18C107.927 170.28 109.687 172.24 112.247 172.24C113.687 172.24 114.927 171.46 115.607 170.46V172H116.667ZM112.427 171.3C110.287 171.3 109.047 169.52 109.047 167.18C109.047 164.84 110.287 163.04 112.427 163.04C113.787 163.04 115.047 163.86 115.607 164.8V169.58C115.047 170.5 113.787 171.3 112.427 171.3ZM124.193 172.24C125.793 172.24 127.013 171.68 127.973 170.68L127.433 170C126.613 170.88 125.493 171.34 124.273 171.34C121.993 171.34 120.593 169.6 120.493 167.5H128.573V167.22C128.573 164.44 126.953 162.1 124.013 162.1C121.333 162.1 119.353 164.36 119.353 167.16C119.353 170.14 121.373 172.24 124.193 172.24ZM127.513 166.68H120.493C120.573 165 121.713 163 123.993 163C126.413 163 127.493 165.04 127.513 166.68ZM132.301 172V164.96C132.741 164.12 134.061 163.24 135.041 163.24C135.241 163.24 135.381 163.24 135.561 163.28V162.14C134.221 162.14 133.121 162.92 132.301 164V162.34H131.261V172H132.301ZM149.964 172V165.2C149.964 163.04 148.404 162.1 146.444 162.1C144.844 162.1 143.724 162.64 142.724 163.72L143.304 164.44C144.184 163.44 145.124 163.02 146.324 163.02C147.764 163.02 148.924 163.8 148.924 165.24V167.2C148.084 166.26 146.984 165.82 145.644 165.82C143.964 165.82 142.264 166.92 142.264 169.02C142.264 171.1 143.984 172.24 145.644 172.24C146.984 172.24 148.064 171.8 148.924 170.86V172H149.964ZM146.004 171.42C144.404 171.42 143.364 170.4 143.364 169.04C143.364 167.66 144.404 166.64 146.004 166.64C147.164 166.64 148.244 167.1 148.924 167.98V170.1C148.244 170.98 147.164 171.42 146.004 171.42ZM160.774 172V165.24C160.774 163.06 159.694 162.1 157.734 162.1C156.334 162.1 154.954 162.96 154.254 163.8V162.34H153.214V172H154.254V164.7C154.874 163.82 156.154 163.04 157.394 163.04C158.794 163.04 159.734 163.6 159.734 165.46V172H160.774ZM172.195 172V158.66H171.135V163.9C170.355 162.8 169.155 162.1 167.775 162.1C165.215 162.1 163.455 164.12 163.455 167.18C163.455 170.28 165.215 172.24 167.775 172.24C169.215 172.24 170.455 171.46 171.135 170.46V172H172.195ZM167.955 171.3C165.815 171.3 164.575 169.52 164.575 167.18C164.575 164.84 165.815 163.04 167.955 163.04C169.315 163.04 170.575 163.86 171.135 164.8V169.58C170.575 170.5 169.315 171.3 167.955 171.3ZM186.916 172.24C189.036 172.24 190.596 171.32 191.776 169.86L190.816 169.26C189.976 170.42 188.516 171.2 186.916 171.2C183.776 171.2 181.356 168.78 181.356 165.34C181.356 161.86 183.776 159.48 186.916 159.48C188.516 159.48 189.976 160.26 190.816 161.42L191.776 160.8C190.636 159.38 189.036 158.44 186.916 158.44C183.136 158.44 180.156 161.24 180.156 165.34C180.156 169.44 183.136 172.24 186.916 172.24ZM202.554 172V170.96H195.234V165.68H202.414V164.64H195.234V159.7H202.554V158.66H194.094V172H202.554ZM211.363 172.24C215.263 172.24 217.843 169.24 217.843 165.34C217.843 161.44 215.263 158.44 211.363 158.44C207.443 158.44 204.883 161.44 204.883 165.34C204.883 169.24 207.443 172.24 211.363 172.24ZM211.363 171.2C208.123 171.2 206.083 168.7 206.083 165.34C206.083 161.94 208.123 159.48 211.363 159.48C214.563 159.48 216.643 161.94 216.643 165.34C216.643 168.7 214.563 171.2 211.363 171.2ZM221.59 171.72C221.59 170.9 221.11 170.44 220.57 170.44C220.09 170.44 219.71 170.84 219.71 171.3C219.71 171.78 220.05 172.14 220.53 172.14C220.59 172.14 220.73 172.12 220.73 172.12C220.69 172.74 220.21 173.52 219.57 173.96L220.15 174.46C220.93 173.9 221.59 172.84 221.59 171.72ZM230.761 172V166.46H234.621C237.161 166.46 238.641 164.66 238.641 162.56C238.641 160.46 237.181 158.66 234.621 158.66H229.621V172H230.761ZM234.501 165.42H230.761V159.7H234.501C236.261 159.7 237.441 160.88 237.441 162.56C237.441 164.24 236.261 165.42 234.501 165.42ZM247.307 172.26C249.407 172.26 251.187 171.36 252.367 170.04V165.38H246.187V166.4H251.227V169.6C250.487 170.34 249.087 171.22 247.307 171.22C244.167 171.22 241.747 168.78 241.747 165.34C241.747 161.86 244.167 159.48 247.307 159.48C249.007 159.48 250.527 160.22 251.467 161.34L252.327 160.72C251.107 159.32 249.507 158.44 247.307 158.44C243.567 158.44 240.547 161.22 240.547 165.34C240.547 169.46 243.567 172.26 247.307 172.26ZM259.005 167.64V166.68H254.205V167.64H259.005ZM268.402 172V165.2C268.402 163.04 266.842 162.1 264.882 162.1C263.282 162.1 262.162 162.64 261.162 163.72L261.742 164.44C262.622 163.44 263.562 163.02 264.762 163.02C266.202 163.02 267.362 163.8 267.362 165.24V167.2C266.522 166.26 265.422 165.82 264.082 165.82C262.402 165.82 260.702 166.92 260.702 169.02C260.702 171.1 262.422 172.24 264.082 172.24C265.422 172.24 266.502 171.8 267.362 170.86V172H268.402ZM264.442 171.42C262.842 171.42 261.802 170.4 261.802 169.04C261.802 167.66 262.842 166.64 264.442 166.64C265.602 166.64 266.682 167.1 267.362 167.98V170.1C266.682 170.98 265.602 171.42 264.442 171.42ZM275.791 172.24C277.471 172.24 278.431 171.58 279.211 170.58L278.491 169.94C277.791 170.9 276.911 171.3 275.851 171.3C273.591 171.3 272.211 169.48 272.211 167.16C272.211 164.84 273.591 163.04 275.851 163.04C276.911 163.04 277.791 163.42 278.491 164.38L279.211 163.74C278.431 162.76 277.471 162.1 275.791 162.1C272.951 162.1 271.091 164.34 271.091 167.16C271.091 169.98 272.951 172.24 275.791 172.24ZM283.634 172.24C284.434 172.24 284.894 172 285.274 171.64L284.874 170.84C284.654 171.08 284.254 171.3 283.794 171.3C283.114 171.3 282.794 170.76 282.794 169.98V163.26H284.754V162.34H282.794V159.7H281.734V162.34H280.134V163.26H281.734V170.14C281.734 171.46 282.354 172.24 283.634 172.24ZM287.562 160.82C288.002 160.82 288.362 160.46 288.362 160.02C288.362 159.58 288.002 159.24 287.562 159.24C287.142 159.24 286.762 159.58 286.762 160.02C286.762 160.46 287.142 160.82 287.562 160.82ZM288.082 172V162.34H287.042V172H288.082ZM295.099 172L299.179 162.34H297.999L294.519 170.78L290.999 162.34H289.839L293.919 172H295.099ZM305.228 172.24C306.828 172.24 308.048 171.68 309.008 170.68L308.468 170C307.648 170.88 306.528 171.34 305.308 171.34C303.028 171.34 301.628 169.6 301.528 167.5H309.608V167.22C309.608 164.44 307.988 162.1 305.048 162.1C302.368 162.1 300.388 164.36 300.388 167.16C300.388 170.14 302.408 172.24 305.228 172.24ZM308.548 166.68H301.528C301.608 165 302.748 163 305.028 163C307.448 163 308.528 165.04 308.548 166.68ZM312.68 172.2C313.16 172.2 313.58 171.78 313.58 171.3C313.58 170.84 313.16 170.44 312.68 170.44C312.2 170.44 311.8 170.84 311.8 171.3C311.8 171.78 312.2 172.2 312.68 172.2ZM326.911 172.24C330.351 172.24 332.111 170.18 332.111 166.88V158.66H330.951V166.86C330.951 169.56 329.551 171.2 326.911 171.2C324.291 171.2 322.871 169.56 322.871 166.86V158.66H321.711V166.88C321.711 170.16 323.491 172.24 326.911 172.24ZM339.562 172.24C343.162 172.24 344.302 170.18 344.302 168.46C344.302 163.48 336.302 165.36 336.302 161.94C336.302 160.5 337.642 159.48 339.422 159.48C340.922 159.48 342.282 160 343.242 161.16L344.002 160.32C342.962 159.14 341.482 158.44 339.482 158.44C337.062 158.44 335.102 159.82 335.102 162C335.102 166.66 343.102 164.62 343.102 168.54C343.102 169.68 342.322 171.2 339.582 171.2C337.682 171.2 336.282 170.26 335.422 169.26L334.682 170.12C335.702 171.36 337.362 172.24 339.562 172.24ZM357.828 172L352.368 158.66H350.948L345.488 172H346.808L348.127 168.72H355.188L356.508 172H357.828ZM354.808 167.68H348.508L351.648 159.88L354.808 167.68Z" fill="#242A35"/>
<path fill-rule="evenodd" clip-rule="evenodd" d="M3.15647 9.34513C1.05215 13.121 0 17.0855 0 21.2389C0 24.5428 0.841718 27.1622 2.52518 29.0973C4.20864 31.0325 6.26617 32 8.69784 32C10.7554 32 12.509 31.2684 13.9586 29.8053C15.4083 28.3422 16.1331 26.5723 16.1331 24.4956C16.1331 22.4189 15.5018 20.6962 14.2392 19.3274C12.9766 17.9587 11.3633 17.2743 9.39928 17.2743C9.1187 17.2743 8.74461 17.3215 8.27698 17.4159H7.57554C7.76259 15.1504 8.7446 12.767 10.5216 10.2655C12.2986 7.764 14.3093 5.75812 16.554 4.24779L11.3633 0C7.99639 2.45429 5.2608 5.5693 3.15647 9.34513ZM25.6025 9.34513C23.4982 13.121 22.446 17.0855 22.446 21.2389C22.446 24.5428 23.2878 27.1622 24.9712 29.0973C26.6547 31.0325 28.7122 32 31.1439 32C33.2015 32 34.9784 31.2684 36.4748 29.8053C37.9712 28.3422 38.7194 26.5723 38.7194 24.4956C38.7194 22.4189 38.0648 20.6962 36.7554 19.3274C35.446 17.9587 33.8094 17.2743 31.8453 17.2743C31.5647 17.2743 31.1907 17.3215 30.723 17.4159H30.0216C30.3022 15.1504 31.3075 12.767 33.0378 10.2655C34.768 7.764 36.7554 5.75812 39 4.24779L33.8094 0C30.4424 2.45429 27.7068 5.5693 25.6025 9.34513Z" fill="#505AD5"/>
</svg>
