<?xml version="1.0" encoding="iso-8859-1"?>
<!-- Generator: Adobe Illustrator 19.0.0, SVG Export Plug-In . SVG Version: 6.00 Build 0)  -->
<svg version="1.1" id="Capa_1" xmlns="http://www.w3.org/2000/svg" xmlns:xlink="http://www.w3.org/1999/xlink" x="0px" y="0px " height="28" width="28" 
	 viewBox="0 0 480.131 480.131" style="enable-background:new 0 0 480.131 480.131;" xml:space="preserve">
<g>
	<g>
		<path d="M440.051,176.007c-0.04-30.911-25.089-55.96-56-56h-11.152c15.945-26.449,7.429-60.817-19.021-76.761
			c-12.698-7.655-27.915-9.953-42.307-6.391c-28.158-39.499-83.004-48.694-122.504-20.536c-7.938,5.658-14.878,12.599-20.536,20.536
			c-29.979-7.421-60.298,10.866-67.719,40.845c-3.563,14.392-1.264,29.61,6.391,42.307H96.051
			c-30.928,0.016-55.987,25.101-55.971,56.029c0.011,20.816,11.566,39.908,30.003,49.571
			c-38.923,93.871,5.621,201.521,99.492,240.444s201.521-5.621,240.444-99.492c18.709-45.122,18.709-95.831,0-140.952
			C428.488,215.959,440.062,196.844,440.051,176.007z M240.051,464.007c-92.784,0-168-75.216-168-168s75.216-168,168-168
			s168,75.216,168,168C407.945,388.747,332.791,463.901,240.051,464.007z M403.195,211.079L403.195,211.079
			c-46.83-90.102-157.836-125.18-247.938-78.35c-33.552,17.439-60.911,44.798-78.35,78.35
			c-19.37-10.623-26.461-34.936-15.838-54.306c7.007-12.778,20.409-20.733,34.982-20.766h28.08c4.418-0.001,7.999-3.583,7.998-8.002
			c0-2.117-0.84-4.147-2.334-5.646l-2.88-2.88c-15.638-15.567-15.695-40.863-0.128-56.5c11.072-11.123,27.631-14.733,42.328-9.227
			c3.578,1.33,7.598-0.053,9.6-3.304c20.666-33.879,64.884-44.591,98.763-23.925c9.766,5.957,17.968,14.159,23.925,23.925
			c2.002,3.251,6.022,4.634,9.6,3.304c20.663-7.74,43.688,2.737,51.427,23.399c5.505,14.697,1.895,31.256-9.227,42.328l-2.88,2.88
			c-3.119,3.129-3.111,8.194,0.018,11.314c1.495,1.491,3.519,2.33,5.63,2.334h28.08c22.091,0.05,39.96,17.999,39.91,40.09
			C423.928,190.67,415.973,204.072,403.195,211.079z"/>
	</g>
</g>
<g>
	<g>
		<path d="M240.051,136.007c-88.366,0-160,71.634-160,160s71.634,160,160,160s160-71.634,160-160
			C399.95,207.684,328.375,136.108,240.051,136.007z M240.051,440.007c-76.338-0.126-139.323-59.781-143.592-136h23.592v-16H96.459
			c1.782-32.578,14.635-63.571,36.432-87.848l16.656,16.648l11.304-11.304l-16.656-16.656
			c24.279-21.799,55.275-34.652,87.856-36.432v23.592h16v-23.592c32.578,1.782,63.571,14.635,87.848,36.432l-16.648,16.656
			l11.304,11.304l16.696-16.648c21.783,24.283,34.621,55.275,36.392,87.848h-23.592v16h23.592
			C379.374,380.226,316.389,439.881,240.051,440.007z"/>
	</g>
</g>
<g>
	<g>
		<path d="M240.051,184.007c-61.828,0.066-111.934,50.172-112,112h16c0.005-16.794,4.445-33.289,12.872-47.816l55.664,55.664
			c-2.941,4.876-4.508,10.458-4.536,16.152c0,17.673,14.327,32,32,32c17.673,0,32-14.327,32-32c0-17.673-14.327-32-32-32
			c-5.695,0.028-11.276,1.595-16.152,4.536l-57.744-57.744c33.783-40.834,94.272-46.549,135.106-12.766
			c22.045,18.238,34.801,45.363,34.79,73.974h16C351.985,234.179,301.88,184.073,240.051,184.007z M240.051,304.007
			c8.837,0,16,7.163,16,16s-7.163,16-16,16s-16-7.163-16-16S231.215,304.007,240.051,304.007z"/>
	</g>
</g>
<g>
</g>
<g>
</g>
<g>
</g>
<g>
</g>
<g>
</g>
<g>
</g>
<g>
</g>
<g>
</g>
<g>
</g>
<g>
</g>
<g>
</g>
<g>
</g>
<g>
</g>
<g>
</g>
<g>
</g>
</svg>
