<svg width="668" height="433" viewBox="0 0 668 433" fill="none" xmlns="http://www.w3.org/2000/svg">
<g filter="url(#filter0_ddd)">
<path d="M25 49.0625H643V387C643 391.418 639.418 395 635 395H33C28.5817 395 25 391.418 25 387V49.0625Z" fill="white"/>
</g>
<path fill-rule="evenodd" clip-rule="evenodd" d="M25 49.0625H40H628H643V64.0625V386.062C643 390.481 639.418 394.062 635 394.062H33C28.5817 394.062 25 390.481 25 386.062V64.0625V49.0625ZM45 75C45 70.5817 48.5817 67 53 67H614C618.418 67 622 70.5817 622 75V367C622 371.418 618.418 375 614 375H53C48.5817 375 45 371.418 45 367V75Z" fill="#EAE9EF"/>
<path d="M25 8C25 3.58172 28.5817 0 33 0H635C639.418 0 643 3.58172 643 8V49H25V8Z" fill="#70669A"/>
<circle cx="61.5" cy="25.5" r="7.5" fill="white"/>
<circle cx="85.5" cy="25.5" r="7.5" fill="white"/>
<circle cx="109.5" cy="25.5" r="7.5" fill="white"/>
<rect x="164.466" y="15" width="450" height="19" rx="9.5" fill="white"/>
<ellipse cx="115.758" cy="254.904" rx="5.41855" ry="5.42169" fill="#EAE9EF"/>
<rect x="94.5" y="232.548" width="94.5339" height="124.952" rx="6.5" stroke="#EAE9EF" stroke-width="3"/>
<rect x="106.005" y="303.699" width="43.3484" height="3.25301" rx="1.62651" fill="#EAE9EF"/>
<rect x="106.005" y="314.542" width="58.5203" height="3.25301" rx="1.62651" fill="#EAE9EF"/>
<path d="M150.221 257.155C150.798 256.155 152.242 256.155 152.82 257.155L163.362 275.425C163.939 276.425 163.217 277.674 162.062 277.674H140.978C139.824 277.674 139.102 276.425 139.679 275.425L150.221 257.155Z" fill="#EAE9EF"/>
<path d="M132.34 251.734C132.917 250.734 134.361 250.734 134.938 251.734L148.765 275.697C149.342 276.697 148.621 277.946 147.466 277.946H119.812C118.658 277.946 117.936 276.697 118.513 275.697L132.34 251.734Z" fill="#EAE9EF"/>
<rect x="106.005" y="328.638" width="71.5249" height="18.4337" rx="3" fill="#505AD5"/>
<rect x="117.925" y="336.229" width="48.767" height="3.25301" rx="1.62651" fill="#3B45C8"/>
<ellipse cx="370.43" cy="254.904" rx="5.41855" ry="5.42169" fill="#EAE9EF"/>
<rect x="349.172" y="232.548" width="94.5339" height="124.952" rx="6.5" stroke="#EAE9EF" stroke-width="3"/>
<rect x="360.677" y="303.699" width="43.3484" height="3.25301" rx="1.62651" fill="#EAE9EF"/>
<rect x="360.677" y="314.542" width="58.5203" height="3.25301" rx="1.62651" fill="#EAE9EF"/>
<path d="M404.893 257.155C405.47 256.155 406.914 256.155 407.491 257.155L418.033 275.425C418.61 276.425 417.889 277.674 416.734 277.674H395.65C394.496 277.674 393.774 276.425 394.351 275.425L404.893 257.155Z" fill="#EAE9EF"/>
<path d="M387.012 251.734C387.589 250.734 389.033 250.734 389.61 251.734L403.437 275.697C404.014 276.697 403.293 277.946 402.138 277.946H374.484C373.33 277.946 372.608 276.697 373.185 275.697L387.012 251.734Z" fill="#EAE9EF"/>
<rect x="360.677" y="328.638" width="71.5249" height="18.4337" rx="3" fill="#505AD5"/>
<rect x="372.597" y="336.229" width="48.767" height="3.25301" rx="1.62651" fill="#3B45C8"/>
<ellipse cx="243.636" cy="254.904" rx="5.41855" ry="5.42169" fill="#EAE9EF"/>
<rect x="222.378" y="232.548" width="94.5339" height="124.952" rx="6.5" stroke="#EAE9EF" stroke-width="3"/>
<rect x="233.882" y="303.699" width="43.3484" height="3.25301" rx="1.62651" fill="#EAE9EF"/>
<rect x="233.882" y="314.542" width="58.5203" height="3.25301" rx="1.62651" fill="#EAE9EF"/>
<path d="M278.099 257.155C278.676 256.155 280.12 256.155 280.697 257.155L291.239 275.425C291.816 276.425 291.095 277.674 289.94 277.674H268.856C267.702 277.674 266.98 276.425 267.557 275.425L278.099 257.155Z" fill="#EAE9EF"/>
<path d="M260.218 251.734C260.795 250.734 262.239 250.734 262.816 251.734L276.643 275.697C277.22 276.697 276.498 277.946 275.344 277.946H247.69C246.536 277.946 245.814 276.697 246.391 275.697L260.218 251.734Z" fill="#EAE9EF"/>
<rect x="233.882" y="328.638" width="71.5249" height="18.4337" rx="3" fill="#505AD5"/>
<rect x="245.803" y="336.229" width="48.767" height="3.25301" rx="1.62651" fill="#3B45C8"/>
<ellipse cx="497.224" cy="254.904" rx="5.41855" ry="5.42169" fill="#EAE9EF"/>
<rect x="475.966" y="232.548" width="94.5339" height="124.952" rx="6.5" stroke="#EAE9EF" stroke-width="3"/>
<rect x="487.471" y="303.699" width="43.3484" height="3.25301" rx="1.62651" fill="#EAE9EF"/>
<rect x="487.471" y="314.542" width="58.5203" height="3.25301" rx="1.62651" fill="#EAE9EF"/>
<path d="M531.687 257.155C532.264 256.155 533.708 256.155 534.285 257.155L544.827 275.425C545.404 276.425 544.683 277.674 543.528 277.674H522.444C521.29 277.674 520.568 276.425 521.145 275.425L531.687 257.155Z" fill="#EAE9EF"/>
<path d="M513.806 251.734C514.383 250.734 515.827 250.734 516.404 251.734L530.231 275.697C530.808 276.697 530.086 277.946 528.932 277.946H501.278C500.124 277.946 499.402 276.697 499.979 275.697L513.806 251.734Z" fill="#EAE9EF"/>
<rect x="487.471" y="328.638" width="71.5249" height="18.4337" rx="3" fill="#505AD5"/>
<rect x="499.391" y="336.229" width="48.767" height="3.25301" rx="1.62651" fill="#3B45C8"/>
<ellipse cx="116.842" cy="112.856" rx="5.41855" ry="5.42169" fill="#EAE9EF"/>
<rect x="95.5842" y="90.5" width="94.5339" height="124.952" rx="6.5" stroke="#EAE9EF" stroke-width="3"/>
<rect x="107.088" y="161.65" width="43.3484" height="3.25301" rx="1.62651" fill="#EAE9EF"/>
<rect x="107.088" y="172.494" width="58.5203" height="3.25301" rx="1.62651" fill="#EAE9EF"/>
<path d="M151.305 115.107C151.882 114.107 153.326 114.107 153.903 115.107L164.445 133.377C165.022 134.377 164.301 135.627 163.146 135.627H142.062C140.908 135.627 140.186 134.377 140.763 133.377L151.305 115.107Z" fill="#EAE9EF"/>
<path d="M133.424 109.686C134.001 108.685 135.445 108.685 136.022 109.686L149.849 133.648C150.426 134.648 149.704 135.898 148.55 135.898H120.896C119.742 135.898 119.02 134.648 119.597 133.648L133.424 109.686Z" fill="#EAE9EF"/>
<rect x="107.088" y="186.59" width="71.5249" height="18.4337" rx="3" fill="#505AD5"/>
<rect x="119.009" y="194.181" width="48.767" height="3.25301" rx="1.62651" fill="#3B45C8"/>
<ellipse cx="243.636" cy="112.856" rx="5.41855" ry="5.42169" fill="#EAE9EF"/>
<rect x="222.378" y="90.5" width="94.5339" height="124.952" rx="6.5" stroke="#EAE9EF" stroke-width="3"/>
<rect x="233.882" y="161.65" width="43.3484" height="3.25301" rx="1.62651" fill="#EAE9EF"/>
<rect x="233.882" y="172.494" width="58.5203" height="3.25301" rx="1.62651" fill="#EAE9EF"/>
<path d="M278.099 115.107C278.676 114.107 280.12 114.107 280.697 115.107L291.239 133.377C291.816 134.377 291.095 135.627 289.94 135.627H268.856C267.702 135.627 266.98 134.377 267.557 133.377L278.099 115.107Z" fill="#EAE9EF"/>
<path d="M260.218 109.686C260.795 108.685 262.239 108.685 262.816 109.686L276.643 133.648C277.22 134.648 276.498 135.898 275.344 135.898H247.69C246.536 135.898 245.814 134.648 246.391 133.648L260.218 109.686Z" fill="#EAE9EF"/>
<rect x="233.882" y="186.59" width="71.5249" height="18.4337" rx="3" fill="#505AD5"/>
<rect x="245.803" y="194.181" width="48.767" height="3.25301" rx="1.62651" fill="#3B45C8"/>
<ellipse cx="370.43" cy="112.856" rx="5.41855" ry="5.42169" fill="#EAE9EF"/>
<rect x="349.172" y="90.5" width="94.5339" height="124.952" rx="6.5" stroke="#EAE9EF" stroke-width="3"/>
<rect x="360.677" y="161.65" width="43.3484" height="3.25301" rx="1.62651" fill="#EAE9EF"/>
<rect x="360.677" y="172.494" width="58.5203" height="3.25301" rx="1.62651" fill="#EAE9EF"/>
<path d="M404.893 115.107C405.47 114.107 406.914 114.107 407.491 115.107L418.033 133.377C418.61 134.377 417.889 135.627 416.734 135.627H395.65C394.496 135.627 393.774 134.377 394.351 133.377L404.893 115.107Z" fill="#EAE9EF"/>
<path d="M387.012 109.686C387.589 108.685 389.033 108.685 389.61 109.686L403.437 133.648C404.014 134.648 403.293 135.898 402.138 135.898H374.484C373.33 135.898 372.608 134.648 373.185 133.648L387.012 109.686Z" fill="#EAE9EF"/>
<rect x="360.677" y="186.59" width="71.5249" height="18.4337" rx="3" fill="#505AD5"/>
<rect x="372.597" y="194.181" width="48.767" height="3.25301" rx="1.62651" fill="#3B45C8"/>
<ellipse cx="497.224" cy="112.856" rx="5.41855" ry="5.42169" fill="#EAE9EF"/>
<rect x="475.966" y="90.5" width="94.5339" height="124.952" rx="6.5" stroke="#EAE9EF" stroke-width="3"/>
<rect x="487.471" y="161.65" width="43.3484" height="3.25301" rx="1.62651" fill="#EAE9EF"/>
<rect x="487.471" y="172.494" width="58.5203" height="3.25301" rx="1.62651" fill="#EAE9EF"/>
<path d="M531.687 115.107C532.264 114.107 533.708 114.107 534.285 115.107L544.827 133.377C545.404 134.377 544.683 135.627 543.528 135.627H522.444C521.29 135.627 520.568 134.377 521.145 133.377L531.687 115.107Z" fill="#EAE9EF"/>
<path d="M513.806 109.686C514.383 108.685 515.827 108.685 516.404 109.686L530.231 133.648C530.808 134.648 530.086 135.898 528.932 135.898H501.278C500.124 135.898 499.402 134.648 499.979 133.648L513.806 109.686Z" fill="#EAE9EF"/>
<rect x="487.471" y="186.59" width="71.5249" height="18.4337" rx="3" fill="#505AD5"/>
<rect x="499.391" y="194.181" width="48.767" height="3.25301" rx="1.62651" fill="#3B45C8"/>
<g filter="url(#filter1_d)">
<rect x="128" y="114" width="410" height="218" rx="8" fill="white"/>
</g>
<path d="M517.119 135.501L519.872 132.748C520.043 132.577 520.043 132.3 519.872 132.129C519.701 131.958 519.424 131.958 519.253 132.129L516.5 134.882L513.747 132.129C513.576 131.958 513.299 131.958 513.128 132.129C512.957 132.3 512.957 132.577 513.128 132.748L515.881 135.501L513.128 138.254C512.957 138.424 512.957 138.702 513.128 138.873C513.214 138.958 513.326 139.001 513.438 139.001C513.55 139.001 513.662 138.958 513.747 138.872L516.5 136.12L519.253 138.872C519.338 138.958 519.45 139.001 519.562 139.001C519.674 139.001 519.786 138.958 519.872 138.872C520.043 138.702 520.043 138.424 519.872 138.253L517.119 135.501Z" fill="black" fill-opacity="0.2"/>
<path d="M287.34 201.24C291.4 201.24 293.36 198.98 293.36 195.66V187.66H290.46V195.58C290.46 197.44 289.4 198.72 287.34 198.72C285.28 198.72 284.2 197.44 284.2 195.58V187.66H281.32V195.68C281.32 198.96 283.28 201.24 287.34 201.24Z" fill="#242A35"/>
<path d="M301.448 201.24C303.928 201.24 305.728 199.38 305.728 196.16C305.728 192.94 303.928 191.1 301.448 191.1C300.268 191.1 299.208 191.62 298.468 192.56V191.34H295.928V204.68H298.468V199.76C299.248 200.76 300.308 201.24 301.448 201.24ZM300.648 198.98C299.828 198.98 298.888 198.48 298.468 197.88V194.46C298.888 193.84 299.828 193.36 300.648 193.36C302.108 193.36 303.088 194.5 303.088 196.16C303.088 197.84 302.108 198.98 300.648 198.98Z" fill="#242A35"/>
<path d="M311.548 204.92C313.928 204.92 316.768 204.02 316.768 200.34V191.34H314.208V192.58C313.428 191.6 312.388 191.1 311.228 191.1C308.788 191.1 306.968 192.86 306.968 196.02C306.968 199.24 308.808 200.94 311.228 200.94C312.408 200.94 313.448 200.38 314.208 199.42V200.4C314.208 202.3 312.768 202.84 311.548 202.84C310.328 202.84 309.308 202.5 308.528 201.64L307.388 203.48C308.608 204.54 309.888 204.92 311.548 204.92ZM312.028 198.68C310.588 198.68 309.588 197.68 309.588 196.02C309.588 194.36 310.588 193.36 312.028 193.36C312.868 193.36 313.788 193.82 314.208 194.46V197.58C313.788 198.2 312.868 198.68 312.028 198.68Z" fill="#242A35"/>
<path d="M321.827 201V194.62C322.247 194 323.367 193.52 324.207 193.52C324.487 193.52 324.727 193.54 324.907 193.58V191.1C323.707 191.1 322.507 191.8 321.827 192.66V191.34H319.287V201H321.827Z" fill="#242A35"/>
<path d="M334.834 201V194.76C334.834 191.98 332.814 191.1 330.614 191.1C329.094 191.1 327.574 191.58 326.394 192.62L327.354 194.32C328.174 193.56 329.134 193.18 330.174 193.18C331.454 193.18 332.294 193.82 332.294 194.8V196.1C331.654 195.34 330.514 194.92 329.234 194.92C327.694 194.92 325.874 195.78 325.874 198.04C325.874 200.2 327.694 201.24 329.234 201.24C330.494 201.24 331.634 200.78 332.294 200V201H334.834ZM330.254 199.52C329.254 199.52 328.434 199 328.434 198.1C328.434 197.16 329.254 196.64 330.254 196.64C331.074 196.64 331.874 196.92 332.294 197.48V198.68C331.874 199.24 331.074 199.52 330.254 199.52Z" fill="#242A35"/>
<path d="M346.554 201V187.66H343.994V192.58C343.234 191.6 342.154 191.1 341.014 191.1C338.554 191.1 336.734 193.02 336.734 196.18C336.734 199.4 338.574 201.24 341.014 201.24C342.174 201.24 343.234 200.72 343.994 199.76V201H346.554ZM341.794 198.98C340.354 198.98 339.354 197.84 339.354 196.18C339.354 194.5 340.354 193.36 341.794 193.36C342.654 193.36 343.574 193.82 343.994 194.46V197.88C343.574 198.52 342.654 198.98 341.794 198.98Z" fill="#242A35"/>
<path d="M353.613 201.24C355.113 201.24 356.633 200.78 357.593 199.9L356.473 198.26C355.853 198.86 354.713 199.22 353.893 199.22C352.253 199.22 351.273 198.2 351.113 196.98H358.293V196.42C358.293 193.26 356.333 191.1 353.453 191.1C350.513 191.1 348.453 193.36 348.453 196.16C348.453 199.26 350.673 201.24 353.613 201.24ZM355.833 195.26H351.073C351.193 194.3 351.873 193.12 353.453 193.12C355.133 193.12 355.773 194.34 355.833 195.26Z" fill="#242A35"/>
<path d="M368.484 201.24C369.544 201.24 370.224 200.96 370.604 200.62L370.064 198.7C369.924 198.84 369.564 198.98 369.184 198.98C368.624 198.98 368.304 198.52 368.304 197.92V193.56H370.264V191.34H368.304V188.7H365.744V191.34H364.144V193.56H365.744V198.6C365.744 200.32 366.704 201.24 368.484 201.24Z" fill="#242A35"/>
<path d="M376.482 201.24C379.682 201.24 381.602 198.92 381.602 196.16C381.602 193.42 379.682 191.1 376.482 191.1C373.302 191.1 371.382 193.42 371.382 196.16C371.382 198.92 373.302 201.24 376.482 201.24ZM376.482 198.98C374.902 198.98 374.022 197.68 374.022 196.16C374.022 194.66 374.902 193.36 376.482 193.36C378.062 193.36 378.962 194.66 378.962 196.16C378.962 197.68 378.062 198.98 376.482 198.98Z" fill="#242A35"/>
<g clip-path="url(#clip0)">
<path d="M233.012 208L208 222.4V251.178L215.143 255.288L215.096 226.522L232.965 216.219L250.834 226.522V255.276L257.977 251.178V222.377L233.012 208Z" fill="#F26322"/>
<path d="M236.56 255.287L232.988 257.348L229.405 255.299V226.521L222.262 230.631L222.274 259.397L232.988 265.567L243.703 259.397V230.631L236.56 226.521V255.287Z" fill="#F26322"/>
<path d="M274.34 222.575L284.156 247.325H284.238L293.82 222.575H297.555V250.934H294.975V226.231H294.894C294.765 226.673 294.614 227.127 294.462 227.569L293.995 228.803L293.54 230.119L285.311 250.934H282.977L274.655 230.119C274.492 229.746 274.34 229.351 274.177 228.955C274.014 228.559 273.873 228.105 273.745 227.709L273.267 226.324H273.185V250.934H270.722V222.575H274.34Z" fill="#4D4D4D"/>
<path d="M305.071 251.073C304.298 250.862 303.576 250.498 302.947 250.002C302.346 249.524 301.863 248.914 301.535 248.221C301.169 247.438 300.989 246.582 301.009 245.718C300.97 244.687 301.204 243.663 301.686 242.75C302.132 241.989 302.762 241.353 303.519 240.899C304.354 240.414 305.26 240.061 306.203 239.851C307.305 239.597 308.419 239.403 309.541 239.269C310.545 239.164 311.409 239.059 312.109 238.931C312.693 238.847 313.265 238.695 313.813 238.477C314.199 238.335 314.532 238.079 314.77 237.744C314.986 237.365 315.091 236.934 315.073 236.498V236.102C315.118 235.52 315.027 234.934 314.806 234.393C314.585 233.852 314.241 233.369 313.801 232.983C312.726 232.25 311.436 231.898 310.136 231.981C306.487 231.981 304.565 233.499 304.371 236.533H301.885C301.917 235.632 302.13 234.747 302.511 233.929C302.891 233.111 303.433 232.378 304.102 231.772C305.806 230.465 307.934 229.83 310.078 229.991C311.96 229.896 313.822 230.419 315.377 231.481C316.065 232.078 316.6 232.829 316.939 233.673C317.278 234.517 317.411 235.43 317.326 236.335V247.488C317.298 247.961 317.434 248.43 317.711 248.815C317.835 248.96 317.989 249.075 318.162 249.154C318.336 249.232 318.524 249.272 318.715 249.269C318.855 249.286 318.996 249.286 319.135 249.269C319.305 249.243 319.473 249.204 319.637 249.153H319.754V250.945C319.534 251.032 319.307 251.102 319.077 251.155C318.752 251.231 318.419 251.266 318.085 251.26C317.307 251.302 316.541 251.053 315.937 250.561C315.652 250.271 315.427 249.927 315.277 249.549C315.126 249.171 315.053 248.767 315.062 248.361V247.93H314.945C314.623 248.361 314.272 248.769 313.895 249.153C313.453 249.608 312.95 249.999 312.401 250.317C311.755 250.655 311.069 250.91 310.358 251.073C309.501 251.294 308.618 251.399 307.732 251.388C306.835 251.413 305.938 251.307 305.071 251.073ZM311.129 248.908C311.93 248.607 312.667 248.157 313.299 247.581C313.865 247.05 314.315 246.408 314.618 245.695C314.902 245.024 315.049 244.304 315.05 243.576V239.828C314.297 240.231 313.486 240.518 312.646 240.678C311.7 240.875 310.732 241.05 309.728 241.178C308.724 241.306 308.036 241.446 307.3 241.597C306.623 241.714 305.972 241.946 305.375 242.284C304.835 242.593 304.388 243.039 304.079 243.576C303.736 244.229 303.571 244.959 303.601 245.695C303.581 246.314 303.709 246.928 303.974 247.488C304.211 247.947 304.55 248.345 304.966 248.652C305.405 248.955 305.902 249.165 306.425 249.269C307.001 249.388 307.588 249.447 308.176 249.444C309.186 249.465 310.19 249.282 311.129 248.908Z" fill="#4D4D4D"/>
<path d="M323.955 256.58C323.318 256.143 322.781 255.578 322.378 254.92C321.976 254.262 321.718 253.526 321.621 252.761H323.955C324.039 253.312 324.258 253.834 324.595 254.279C324.931 254.724 325.373 255.079 325.881 255.311C327.081 255.86 328.39 256.127 329.709 256.091C330.591 256.177 331.481 256.086 332.327 255.824C333.172 255.563 333.957 255.135 334.635 254.566C335.173 253.992 335.588 253.315 335.857 252.577C336.126 251.839 336.242 251.054 336.199 250.27V247.01H336.082C335.405 248.082 334.496 248.989 333.421 249.665C332.244 250.322 330.906 250.641 329.558 250.584C328.299 250.601 327.052 250.343 325.905 249.827C324.835 249.342 323.887 248.626 323.127 247.732C322.328 246.78 321.725 245.68 321.353 244.496C320.93 243.155 320.721 241.757 320.734 240.351C320.713 238.851 320.953 237.357 321.446 235.939C321.872 234.749 322.521 233.65 323.36 232.703C324.14 231.849 325.095 231.174 326.161 230.724C327.238 230.277 328.392 230.048 329.558 230.049C330.939 229.994 332.308 230.333 333.503 231.027C334.549 231.68 335.431 232.564 336.082 233.611H336.199V230.433H338.626V250.142C338.72 252.152 338.04 254.122 336.724 255.648C335.811 256.514 334.727 257.181 333.542 257.606C332.356 258.031 331.095 258.204 329.838 258.116C327.778 258.236 325.734 257.698 324.002 256.58H323.955ZM334.775 246.219C335.935 244.457 336.507 242.375 336.409 240.27C336.422 239.144 336.289 238.021 336.012 236.929C335.775 235.991 335.354 235.109 334.775 234.333C334.223 233.612 333.507 233.033 332.686 232.645C331.77 232.231 330.773 232.028 329.768 232.051C328.85 232.009 327.935 232.194 327.106 232.59C326.278 232.986 325.56 233.581 325.018 234.321C323.809 236.089 323.215 238.203 323.325 240.34C323.32 241.431 323.453 242.518 323.722 243.576C323.951 244.497 324.347 245.369 324.889 246.149C325.41 246.868 326.094 247.455 326.885 247.86C327.763 248.289 328.732 248.501 329.709 248.477C330.672 248.546 331.636 248.375 332.516 247.981C333.395 247.587 334.164 246.981 334.751 246.219" fill="#4D4D4D"/>
<path d="M347.17 250.631C346.01 250.117 344.983 249.345 344.17 248.372C343.339 247.366 342.713 246.207 342.326 244.961C341.885 243.585 341.669 242.146 341.684 240.701C341.674 239.253 341.903 237.813 342.361 236.44C342.778 235.197 343.419 234.041 344.252 233.029C345.051 232.066 346.056 231.294 347.193 230.77C348.408 230.213 349.732 229.934 351.068 229.956C352.511 229.904 353.942 230.225 355.223 230.887C356.329 231.484 357.271 232.344 357.966 233.39C358.69 234.479 359.197 235.696 359.46 236.975C359.756 238.345 359.905 239.742 359.903 241.143H344.229C344.252 242.235 344.421 243.32 344.731 244.368C345.009 245.303 345.451 246.182 346.038 246.964C346.611 247.71 347.356 248.309 348.209 248.71C349.165 249.157 350.211 249.376 351.267 249.35C352.711 249.441 354.138 248.993 355.27 248.093C356.249 247.197 356.947 246.036 357.277 244.752H359.612C359.241 246.635 358.266 248.347 356.834 249.63C355.248 250.9 353.251 251.546 351.22 251.446C349.811 251.472 348.414 251.194 347.123 250.631H347.17ZM356.834 236.358C356.591 235.517 356.196 234.728 355.667 234.03C355.155 233.381 354.5 232.859 353.753 232.505C352.892 232.117 351.954 231.93 351.01 231.958C350.059 231.939 349.115 232.125 348.244 232.505C347.462 232.863 346.766 233.383 346.201 234.03C345.621 234.72 345.17 235.509 344.871 236.358C344.531 237.281 344.311 238.244 344.217 239.222H357.254C357.234 238.261 357.089 237.306 356.822 236.382" fill="#4D4D4D"/>
<path d="M365.424 230.433V233.611H365.564C366.267 232.566 367.196 231.69 368.284 231.05C369.55 230.34 370.987 229.99 372.439 230.037C374.148 229.981 375.816 230.572 377.107 231.691C377.741 232.299 378.234 233.039 378.553 233.857C378.871 234.675 379.007 235.553 378.951 236.429V250.98H376.489V236.615C376.541 235.986 376.457 235.354 376.242 234.761C376.026 234.168 375.684 233.629 375.24 233.181C374.263 232.413 373.038 232.028 371.797 232.098C370.956 232.09 370.122 232.236 369.334 232.529C368.593 232.792 367.905 233.187 367.303 233.693C366.712 234.219 366.239 234.865 365.917 235.588C365.595 236.311 365.431 237.093 365.436 237.884V250.934H362.973V230.433H365.424Z" fill="#4D4D4D"/>
<path d="M385.3 250.235C384.915 249.878 384.618 249.437 384.432 248.946C384.246 248.455 384.175 247.929 384.227 247.406V232.447H381.122V230.433H384.238V224.124H386.701V230.433H390.518V232.447H386.689V247.011C386.659 247.286 386.689 247.564 386.775 247.827C386.862 248.09 387.004 248.332 387.191 248.536C387.624 248.847 388.153 248.995 388.685 248.955C388.984 248.954 389.281 248.919 389.572 248.85C389.824 248.801 390.071 248.727 390.307 248.629H390.436V250.736C389.702 250.981 388.933 251.103 388.16 251.097C387.136 251.147 386.126 250.843 385.3 250.235Z" fill="#4D4D4D"/>
<path d="M397.812 250.631C396.652 250.112 395.623 249.34 394.801 248.372C393.959 247.368 393.32 246.209 392.922 244.961C392.032 242.19 392.032 239.211 392.922 236.44C393.32 235.192 393.959 234.034 394.801 233.029C395.623 232.061 396.652 231.29 397.812 230.77C399.072 230.233 400.428 229.956 401.798 229.956C403.168 229.956 404.524 230.233 405.784 230.77C406.927 231.295 407.94 232.066 408.748 233.029C409.595 234.028 410.231 235.189 410.616 236.44C411.472 239.216 411.472 242.185 410.616 244.961C410.231 246.213 409.595 247.373 408.748 248.372C407.937 249.336 406.92 250.108 405.772 250.631C404.512 251.168 403.156 251.446 401.786 251.446C400.416 251.446 399.06 251.168 397.8 250.631H397.812ZM404.803 248.71C405.669 248.271 406.417 247.632 406.986 246.847C407.598 246.017 408.053 245.082 408.328 244.088C408.904 241.874 408.904 239.55 408.328 237.336C408.061 236.34 407.614 235.401 407.009 234.566C406.44 233.781 405.692 233.142 404.827 232.703C403.877 232.258 402.841 232.028 401.792 232.028C400.743 232.028 399.707 232.258 398.758 232.703C397.896 233.149 397.15 233.786 396.575 234.566C395.962 235.398 395.51 236.338 395.244 237.336C394.653 239.548 394.653 241.876 395.244 244.088C395.51 245.087 395.962 246.026 396.575 246.859C397.15 247.639 397.896 248.276 398.758 248.722C399.707 249.166 400.743 249.396 401.792 249.396C402.841 249.396 403.877 249.166 404.827 248.722" fill="#4D4D4D"/>
<path d="M414.421 233.833C414.072 233.848 413.724 233.79 413.4 233.663C413.076 233.535 412.782 233.341 412.537 233.093C412.293 232.845 412.104 232.548 411.982 232.222C411.86 231.897 411.808 231.549 411.829 231.202C411.81 230.854 411.863 230.506 411.985 230.18C412.108 229.854 412.297 229.556 412.54 229.307C412.784 229.057 413.077 228.861 413.4 228.73C413.724 228.599 414.072 228.537 414.421 228.547C414.77 228.533 415.119 228.593 415.443 228.723C415.768 228.852 416.062 229.049 416.305 229.299C416.549 229.55 416.736 229.849 416.856 230.177C416.976 230.504 417.025 230.854 417 231.202C417.02 231.547 416.967 231.893 416.845 232.218C416.723 232.542 416.535 232.837 416.292 233.085C416.049 233.332 415.758 233.527 415.435 233.655C415.113 233.784 414.767 233.845 414.421 233.833ZM414.421 228.85C414.117 228.843 413.816 228.899 413.536 229.015C413.255 229.131 413.003 229.304 412.794 229.523C412.585 229.743 412.424 230.003 412.323 230.288C412.221 230.573 412.18 230.877 412.203 231.178C412.203 231.765 412.437 232.328 412.852 232.742C413.268 233.157 413.832 233.39 414.421 233.39C415.009 233.39 415.573 233.157 415.989 232.742C416.404 232.328 416.638 231.765 416.638 231.178C416.661 230.877 416.62 230.573 416.519 230.288C416.417 230.003 416.256 229.743 416.047 229.523C415.838 229.304 415.586 229.131 415.305 229.015C415.025 228.899 414.724 228.843 414.421 228.85ZM415.179 232.61L414.304 231.353H414.024V232.517H413.522V229.642H414.409C415.016 229.642 415.436 229.944 415.436 230.492C415.444 230.673 415.39 230.852 415.281 230.999C415.173 231.145 415.017 231.25 414.841 231.295L415.681 232.459L415.179 232.61ZM414.409 230.119H414.024V230.98H414.386C414.712 230.98 414.922 230.841 414.922 230.55C414.922 230.259 414.736 230.119 414.409 230.119Z" fill="#4D4D4D"/>
</g>
<path d="M455.94 256V248.5H439.62C450 240.94 455.64 235 455.64 228.16C455.64 220.18 448.86 215.38 440.34 215.38C434.76 215.38 428.82 217.42 424.92 221.92L429.78 227.56C432.48 224.74 435.96 222.94 440.52 222.94C443.82 222.94 447 224.68 447 228.16C447 233.08 442.2 237.22 425.82 249.34V256H455.94Z" fill="#F26322"/>
<defs>
<filter id="filter0_ddd" x="0" y="27.0625" width="668" height="405.938" filterUnits="userSpaceOnUse" color-interpolation-filters="sRGB">
<feFlood flood-opacity="0" result="BackgroundImageFix"/>
<feColorMatrix in="SourceAlpha" type="matrix" values="0 0 0 0 0 0 0 0 0 0 0 0 0 0 0 0 0 0 127 0"/>
<feOffset dy="13"/>
<feGaussianBlur stdDeviation="12.5"/>
<feColorMatrix type="matrix" values="0 0 0 0 0.196078 0 0 0 0 0.196078 0 0 0 0 0.364706 0 0 0 0.1 0"/>
<feBlend mode="normal" in2="BackgroundImageFix" result="effect1_dropShadow"/>
<feColorMatrix in="SourceAlpha" type="matrix" values="0 0 0 0 0 0 0 0 0 0 0 0 0 0 0 0 0 0 127 0"/>
<feOffset dy="8"/>
<feGaussianBlur stdDeviation="8"/>
<feColorMatrix type="matrix" values="0 0 0 0 0.196078 0 0 0 0 0.196078 0 0 0 0 0.364706 0 0 0 0.03 0"/>
<feBlend mode="normal" in2="effect1_dropShadow" result="effect2_dropShadow"/>
<feColorMatrix in="SourceAlpha" type="matrix" values="0 0 0 0 0 0 0 0 0 0 0 0 0 0 0 0 0 0 127 0"/>
<feOffset dy="-6"/>
<feGaussianBlur stdDeviation="8"/>
<feColorMatrix type="matrix" values="0 0 0 0 0.196078 0 0 0 0 0.196078 0 0 0 0 0.364706 0 0 0 0.05 0"/>
<feBlend mode="normal" in2="effect2_dropShadow" result="effect3_dropShadow"/>
<feBlend mode="normal" in="SourceGraphic" in2="effect3_dropShadow" result="shape"/>
</filter>
<filter id="filter1_d" x="110" y="106" width="446" height="254" filterUnits="userSpaceOnUse" color-interpolation-filters="sRGB">
<feFlood flood-opacity="0" result="BackgroundImageFix"/>
<feColorMatrix in="SourceAlpha" type="matrix" values="0 0 0 0 0 0 0 0 0 0 0 0 0 0 0 0 0 0 127 0"/>
<feOffset dy="10"/>
<feGaussianBlur stdDeviation="9"/>
<feColorMatrix type="matrix" values="0 0 0 0 0 0 0 0 0 0 0 0 0 0 0 0 0 0 0.15 0"/>
<feBlend mode="normal" in2="BackgroundImageFix" result="effect1_dropShadow"/>
<feBlend mode="normal" in="SourceGraphic" in2="effect1_dropShadow" result="shape"/>
</filter>
<clipPath id="clip0">
<rect x="208" y="208" width="209" height="70" fill="white"/>
</clipPath>
</defs>
</svg>
